<svg xmlns="http://www.w3.org/2000/svg" viewBox="0 0 569 201" fill="none" role="img" aria-labelledby="dateTitle dateDesc">
  <title id="dateTitle">21–22 November, 2025 (circled in red)</title>
  <desc id="dateDesc">A hand‑drawn red oval circle surrounding the date text. The graphic is a red ring only; the date text itself may be rendered separately by the page.</desc>
  <path fill="#f6100e" fill-rule="evenodd" d="M181.3 174.5h-5.5l-1.1-1-1.1 1h-1.1l-2.2-2h-11l-1.2-1h-6.6l-1-1H136l-1.1-1h-4.4l-1.2 1H125l-1-1h-7.8l-1-1h-3.4l-1.1-1h-5.5l-2.2-2h-7.7l-1.2-1h-1l-2.3-2h-3.3l-1-1H83l-1-1h-1.2l-1 1-1.2-1h-3.3l-1.1-1H71l-1.1-1h-2.2l-1.1-1h-2.2l-1.1-1h-1.1l-1.1-1H60l-1.2-1h-1l-3.4-3h-1l-11.1-10h-1.1l-.6-.5v-1l-4.4-4v-3l-1-1v-1l-1.2-1v-20l1.1-1v-3l1.1-1v-1l1.1-1v-2l1.1-1v-1l1.1-1v-1l.6-.5h1.1l3.9-3.5v-3l1-1v-1l3.4-3v-1l2.7-2.5h1.1l8.9-8h1l3.4-3h2.2l3.3-3h1l2.3-2h1.1l3.3-3H81l1.1-1h1.1l1.1-1h1.1l1.1-1h2.2l1.1-1h1.1l2.2-2h1.1l1.2-1h2.2l1-1h1.2l1-1h1.2l1-1h3.4l.5.5v1l-.5.5h-1.1l-1.1 1H103l-2.2 2h-1.1l-1.1 1h-2.2l-1.1 1H93l-3.3 3h-1l-1.2 1h-1l-3.4 3h-1l-5.6 5h-1.1l-5 4.5v1l-1.6 1.5h-1.1l-1.1 1h-1.1L56 88v1l-2.2 2v1l-1.1 1v1l-5.5 5v2l-1.1 1 1 1-1 1v1l-1.1 1v2l-1.1 1v1l-1.1 1v3l-1.1 1v2l1 1v6l1.2 1v2l2.2 2v1l12.6 11.5H60l2.2 2h1l1.2 1h1l1.2 1h2.2l2.2 2h2.2l1 1h4.5l1.1 1 1.1-1H82l1.1 1h4.4l1.1 1h5.5l1.2 1h4.4l1 1h4.5l1 1h7.8l1.1 1h8.8l1.1 1h6.7l1-1h4.5l1 1h10l1.1 1h18.8l1 1h12.2l1.1-1h28.7l1 1h3.4l1.1-1H232l1.1-1h10l1-1h15.5l1.1-1h6.6l1.1-1h10l1-1h3.4l1-1h3.4l1.1-1h4.4l1.1-1h6.6l1.1-1h5.6l2.2-2h5.5l1-1h4.5l1-1h5.6l1.1-1h5.5l2.2-2h2.2l1.1-1h6.7l1-1h5.6l1-1h5.6l1.1-1h4.4l1.1-1h3.3l1.1-1h7.8l1-1h3.4l2.2-2h3.3l1-1h2.3l1.1-1h3.3l2.2-2h7.7l1.1-1h2.2l1.1-1h3.4l1-1h2.3l1-1h3.4l1-1h2.3l1-1h5.6l1.1-1h2.2l2.2-2h4.4l1.1-1h4.4l1.2-1h2.2l1-1h7.8l1-1h2.3l1.1-1h1.1l1.1-1h3.3l1.1-1h2.2l2.2-2h2.2l1.1-1h1.1l1.1-1h1.1l1.1-1h2.3l1-1h1.2l3.3-3h1l1.2-1h1l1.2-1h1l1.2-1h1l1.2-1h1.1l3.3-3h1.1l6-5.5v-2l2.3-2v-2l1-1v-3l1.2-1v-3l-1.1-1v-2l-3.9-3.5h-1l-1.2-1h-1l-2.3-2h-1l-1.2-1h-1.1l-1.1-1h-1.1l-1.1-1h-2.2l-1.1-1h-2.2l-1.1-1H489l-1.1-1h-3.3l-1.1 1-1.1-1h-2.3l-1-1h-2.3l-1-1h-2.3l-1-1h-2.3l-2.2-2h-2l-1.1-1h-2.2l-1.1-1h-2.2l-1.1-1H456l-1.1-1h-4.4l-1.1-1H446l-1-1h-3.4l-1-1H435l-1 1-1.2-1h-5.5l-1.1-1h-4.4l-1.1-1h-5.5l-1.1-1h-8.9l-1-1h-10l-1.1-1H392l-1.1 1-1.1-1h-5.5l-1.1 1-1.1-1H381l-1.1 1-1.1-1h-1.1l-1.1 1-1.2-1-1 1-2.3-2h-11l-1.1-1h-10l-1-1h-1.1l-1.1 1h-4.4l-1.1-1H340l-1 1h-8.9l-1 1H328l-1-1h-3.4l-1.1 1h-1.1l-1.1-1H306l-1.2-1h-6.6l-1-1-1.2 1-1-1h-1.2l-1 1-1.2-1h-1l-1.2 1-1.1-1h-1.1l-1.1 1h-3.3l-1.1 1h-2.2l-1.1 1H274l-1.1 1h-1.1l-1.2 1H263l-1 1h-15.5l-1.1 1h-10l-1 1H232l-1 1h-1.2l-1 1h-2.3l-1-1h-1.2l-1 1-1.2-1h-3.3l-1.1 1h-1.1l-1.1-1-1.1 1H210l-1.1 1h-2.2l-1.1-1-1.1 1h-3.3l-1.1 1h-3.4l-1 1h-3.4l-1 1h-4.5l-1 1h-4.5l-3.3 3h-6.6l-1.1 1h-1.1l-1.1 1h-3.3l-1.2 1h-4.4l-1 1h-2.3l-2.2 2h-3.3l-2.2 2H146l-1.1 1h-2.2l-1.1 1h-3.3l-1.1 1H135l-1.1 1h-2.2l-2.2 2h-1.2l-1 1H125l-2.2 2h-2.2l-1 1h-2.3l-1 1H114l-1.1 1h-1.1l-1.1 1h-3.3l-2.2 2h-6.6l-1.1-1h-1.1l-1.1-1H93l-.5-.5v-6l1.6-1.5h2.3l1-1h1.2l1-1h1.2l1-1h1.2l1-1h1.2l1-1h1.2l1-1h4.5l1.1-1h1.1l1.1-1h1.1l1.1-1h1.1l2.2-2h2.2l1.1-1h1.1l2.2-2h1.1l2.3-2h2.2l1-1h2.3l1-1h1.2l1-1h2.3l1-1h4.5l1.1-1h3.3l1.1-1h2.2l1.1-1h2.2l1.1-1h2.2l1.1-1h1.2l1-1h2.3l1-1h3.4l1-1h4.5l2.2-2h2.2l2.2-2h3.3l1.1-1h5.5l1.1-1h4.5l1-1h3.4l2.2-2h4.4l1-1 1.2 1h1l1.2-1h6.6l1.1 1 1.1-1h6.6l1.1-1h2.2l1.2-1h4.4l1-1h13.3l1.1-1h10l1-1h12.2l1-1h1.2l1-1h44.2l1.1-1H371l1.1 1h7.8l1 1 1.2-1h8.8l1.1 1h4.4l1.1 1 1.1-1h1.1l1.1 1 1.1-1 1.1 1h1.1l1.1 1h4.4l1.1 1h3.4l1-1h1.2l1 1 1.2-1h1l1.2 1h8.8l1.1 1h3.3l1.1-1h1.1l1.1 1h4.4l1.1 1h6.7l1 1h3.4l1 1h2.3l1 1h3.4l1.1 1h2.2l1.1 1h3.3l1.1 1h2.2l1.1 1h3.3l2.2 2h2.2l1.2 1h5.5l1 1h3.4l1 1h2.3l1 1h1.2l1.1 1h2.2l1.1 1h1.1l1.1 1h2.2l1.1 1h2.2l2.2 2h1.1l1.1 1h1.1l1.1 1h1.2l4.4 4h1l5 4.5v1l2.2 2v2l1.1 1v17l-1 1v5l-1.2 1v1l-1 1v1l-1.2 1v1l-2.2 2v2l-2.2 2v1l-6 5.5h-1.2l-4.4 4h-1l-3.4 3h-1l-1.2 1h-1l-2.3 2h-1.1l-1.1 1h-2.2l-1.1 1h-1.1l-1.1 1h-1.1l-1.1 1h-1.1l-1.1 1H488l-3.3 3h-2.2l-2.3 2h-1l-1.2 1h-3.3l-1 1h-1.2l-1 1h-2.3l-1 1h-2.3l-1.1 1h-3.3l-1.1 1H457l-1.1 1h-2.2l-1.1 1h-4.4l-1.1 1h-7.8l-1 1H436l-2.2 2h-2.2l-1 1h-2.3l-1.1 1h-4.4l-1.1 1h-3.3l-1.1 1h-6.7l-3.3 3h-2.2l-1 1h-7.8l-1.1 1h-1.1l-1.1 1h-6.6l-1.1 1h-1.1l-1.1 1h-3.3l-1.1 1H372l-1 1h-5.6l-1 1h-7.8l-1.1 1h-3.3l-1.1 1h-10l-3.3-3h-2.2l-2.2 2H329l-2.7 2.5v2l-.6.5h-2.2l-1.1 1h-3.3l-2.2 2h-4.4l-1.1 1h-7.8l-1 1h-8.9l-.5-.5v-2l-2.8-2.5-1.1 1H285l-3.3 3h-8.8l-1.1 1H265l-1 1h-11l-1.1 1h-18.8l-1 1h-23.2L206 172v1l-.5.5h-19.9l-1-1-1.2 1h-1.1z" clip-rule="evenodd"/>
  <path fill="#000" d="M449 63.5q-1.4 0-2.3.4a103 103 0 0 0-2.3 13 10 10 0 0 1 2.5-2.6l1.8-1.2a6 6 0 0 1 4.7-.3 4 4 0 0 1 1.8 1.3q.8.9 1 2.1.5 1.2.5 2.6a21 21 0 0 1-2.9 11.3q-1.4 2.5-3.4 4a8 8 0 0 1-4.3 2q-1.2 0-2.3-.3a7 7 0 0 1-3.5-2.9q-.5-1-.5-2 0-2 1.8-3.7l.7-.7.7-.5.6-.4q0 2.3.6 3.5.6 1.1 1.4 1.6t2 .5q1.4-.1 2.6-1.1t1.9-2.5q.8-1.4 1.1-3.3.4-1.7.3-3.5 0-2.4-1-3.6t-2.3-1q-1.3 0-2.5 1.2l-2 2.5-.8.8-1 .2h-1l-.6-.3-.5-.2-.4-.6-.4-1 .2-2 1.3-6.4 1.4-8.4v-.6l1-.4a29 29 0 0 1 5.1-1.4 31 31 0 0 1 6.3-.7q1 0 1.7.3.6.4.7 1.2a6 6 0 0 1-.3 2.8l-1.2 2q-.7-.9-2-1.3l-2.7-.6zm-14.7 34.1q-.1-.6-1.3-1l-2.5-.2a36 36 0 0 0-5.9.6l-2 .5q-.8.4-1.2.9-.5.5-1.5.4t-1.5-1.4l-.4-1-.4-.8-.5-.6a19 19 0 0 1 4.8-7.4l5.2-6a24 24 0 0 0 4.4-9q.6-2.5.5-5.5-.2-2.3-1.2-3.2a3 3 0 0 0-2.4-.7q-.6 0-1.4.8l-1.5 1.6-1 2.4a7 7 0 0 0-.2 3.4l.2.5.5.4-1.4 1-.7.1h-.9l-1-.2q-.5-.2-.9-.7t-.3-1.3q-.1-1 .4-2.5t1.9-3.1 3.4-3a12 12 0 0 1 5-1.5q2-.3 3 .5 1.3.7 1.8 1.8.6 1 .8 2.3l.2 2q.2 1.8-.4 4a34 34 0 0 1-4 8.5 61 61 0 0 1-8.2 10.1q-1.1 1.2-1.7 2.4l-.8 2.1a19 19 0 0 1 12.2-2.5q1 0 1.5.5a5 5 0 0 1 .1 2.5 7 7 0 0 1-.7 2.3m-27.4-33.9a4 4 0 0 1 3.2 1 9 9 0 0 1 2.4 3.3q1 2 1.5 4.9.6 2.7.6 5.8 0 6-1.3 10.3a25 25 0 0 1-3 6.7q-1.6 2.6-3.6 3.8a8 8 0 0 1-3.3 1.3q-1 .2-2.3-.4-1.2-.5-2.2-2t-2-3.8a28 28 0 0 1-.4-15.8 39 39 0 0 1 4-10q1.2-2.2 2.9-3.5 1.5-1.3 3.5-1.6m4 14.1v-1.1a24 24 0 0 0-.6-5l-.7-2.5q-.5-1.2-1.2-1.9a2 2 0 0 0-1.7-.6q-1 .1-2.4 2.1a22 22 0 0 0-2.5 5.2 42 42 0 0 0-1.3 19l.7 2.2 1.1 1.9q.7.8 1.6.7 1.3-.1 2.6-2 1.3-2 2.2-4.8a38 38 0 0 0 2.1-13.2m-21.2 24.9q-.2-.7-1.3-1l-2.5-.2a36 36 0 0 0-5.9.5l-2 .6q-.9.4-1.2.8-.6.5-1.5.5-1-.1-1.5-1.5l-.4-1-.4-.7-.5-.6a19 19 0 0 1 4.8-7.5l5.2-6a24 24 0 0 0 4.4-8.9q.6-2.6.5-5.5-.1-2.4-1.2-3.2a3 3 0 0 0-2.4-.7q-.6 0-1.4.7t-1.5 1.7-1 2.4a7 7 0 0 0-.2 3.4l.2.5q.2.3.5.3-.8.7-1.4 1l-.7.2h-1l-1-.2-.8-.7q-.3-.5-.4-1.4 0-.9.5-2.4t1.9-3.2 3.4-2.9a12 12 0 0 1 5-1.6q2-.2 3 .5 1.2.7 1.8 1.9.6 1 .8 2.3l.2 1.9q.2 2-.5 4.1a34 34 0 0 1-4 8.5 62 62 0 0 1-8.1 10.1q-1.2 1.2-1.7 2.4-.6 1-.8 2a19 19 0 0 1 12.2-2.5q1 .1 1.4.6l.3 1.7v.7l-.2.8zm-36.3-.8q1.2 0 1.7.8t.5 2.1l-.3 1.4a9 9 0 0 1-3.3 5q-.4.4-.7.3-.3 0-.4-.2v-.4l.2-.6q.5-.5.9-1.5t.6-2h-.4l-.5.1a2 2 0 0 1-1.3-.5q-.5-.5-.5-1.5a3 3 0 0 1 1-2.1q1.2-1 2.5-1m-23.2 6q-.3.6-.6.7-.4.3-.7.1-.3 0-.5-.4l.1-1 1.4-3.7a124 124 0 0 1 4-10.9l-.7-.6-.4-.9q-.2-.7 0-1.6a9 9 0 0 1 2-3.7q.8-.8 1.4-.8 1.3-.2 1.9.6.6.7.8 1.7.2.6.1 1.5 0 1-.5 1.8l.4.2h.8l1-.2 1-.2q.8-.1 1.3.2t1 1l.6 1.1.3 1.2q.3 1.2-.3 2.5l-1.5 3-1 2.2q-.6 1.2-.4 2.2l.4.9q.3.3 1.4.2.7 0 1.6-.7t1.8-1.8a31 31 0 0 0 4.6-6.6l1.3-1.9h.6q.3 0 .4.5.1.3-.2 1.1l-2.2 4a46 46 0 0 1-4 5.6q-1 1.2-2.3 2a5 5 0 0 1-2.4 1 4 4 0 0 1-3.5-1.1l-.8-1.5-.3-1.5.1-1.2a25 25 0 0 1 1.6-4.2l1-2.4q.4-1 .4-1.7 0-.5-.3-.8-.2-.2-.6-.2h-.5l-.2.1h-.3l-.6.2-1-.1-.9-.2-2 4.2-4 8.9z"/>
  <path fill="#000" d="M334.2 97.8a37 37 0 0 1-6.1 8.2 20 20 0 0 1-3.8 2.9 10 10 0 0 1-3.9 1.4q-1 0-2.3-.3t-2.3-1.2a8 8 0 0 1-1.9-2.5q-.7-1.5-.8-4 0-1.8.8-4 .7-2.4 2-4.3 1.2-2 3-3.3a7 7 0 0 1 3.5-1.6q1.8-.2 2.7.6t1 2.1q0 1.6-.6 2.8t-1.3 2.4l-1.8 2a52 52 0 0 1-5.1 4.5q.2 1.2.6 1.9.5.8 1.1 1.2.6.5 1.3.6h1.5q1.7-.2 3.2-1.4t3.1-2.8a35 35 0 0 0 4.8-6.2q.3-.5.6-.5h.6q.3.1.3.5t-.2 1m-12.8-5.9q-.5 0-1.2.7l-1.4 1.8-1 2.8q-.6 1.5-.6 3.5l1-1 1.3-1a13 13 0 0 0 2.5-3.1q.6-1.2.6-2.1t-.3-1.2a1 1 0 0 0-.9-.4"/>
  <path fill="#000" d="M302 84.2a64 64 0 0 1-3.5 14.7l-1.3 3.3q0 3.4.6 5.4.8 2 2 1.9t2.2-1.3 1.6-2.7A18 18 0 0 0 305 99q-.9-.2-1.6-.6-.6-.6-.7-1.6l.2-1.2a4 4 0 0 1 1.8-2l1.1-.3q.7 0 1.5.9.6.9 1 2.4 1.8-.2 3.8-1 2-.7 3.8-1.7.5-.3.8-.2t.4.3q.3.3.1.6 0 .4-.5.6a25 25 0 0 1-4.2 2.4l-4 1.2q0 1.8-.7 4.2-.7 2.3-1.9 4.2t-2.8 3.4-3.1 1.6h-1.4a3 3 0 0 1-1.7-.8 7 7 0 0 1-1.7-2.5q-.8-1.8-1-5.2l-.1-4.9a76 76 0 0 1 4.3-20q.3-.6.9-1l1-.4a3 3 0 0 1 1.7-.2q.3.3.4 2 .1 2-.4 5"/>
  <path fill="#000" d="M281.6 111.4a15 15 0 0 1 .2-5l.7-5q0-1.1-.3-1.8-.4-.6-1.2-.5l-1.4.8a10 10 0 0 0-2.1 2.6q-1 1.7-2 4.6t-1.2 7.1q-.7.6-1.6.8l-.7.2q-.9.1-1.2-.2-.4-.3-.1-1.6l1-5.5a49 49 0 0 0 .4-6.5q0-1-.4-1.1-.3-.3-.9-.3l-1.3.7q-1 .5-2 2-1 1.6-2 4a28 28 0 0 0-1.3 6.5v-.1l-.1.8-.1.7v.7l-2.3 1.3-.6.2h-.6q-.3-.1-.5-.7t-.1-1.5l1.6-12.5v-2.2l-.1-.8a11 11 0 0 1 3-1.4q1.6-.1 1.3 2.5l-.3 2.2a24 24 0 0 1 3.5-4.3q.9-.9 1.9-1.5t2-.7q.9 0 1.4.3.6.5 1 1.2.3.6.5 1.7.3 1 .2 2.2A31 31 0 0 1 279 97q1-.9 2-1.5a5 5 0 0 1 2-.8q1.3 0 2 .6.9.6 1.2 1.8.4 1 .4 2.5v2.6l-1 6.5q-.2 2.4 1.3 2.2 1.2-.2 2.4-1.4 1.3-1.4 2.4-3l2.2-3.4 2.2-3.3h.5q.3.2.3.6l-.1 1a59 59 0 0 1-4.5 7.8q-1.4 2-3 3.3a7 7 0 0 1-5 1.6q-.6 0-1.2-.4-.6-.3-1-.9z"/>
  <path fill="#000" d="M262.4 105.9a38 38 0 0 1-6 8.2 20 20 0 0 1-3.9 3 10 10 0 0 1-3.9 1.3q-1 0-2.3-.3T244 117a8 8 0 0 1-1.9-2.5q-.7-1.5-.7-4 0-1.9.7-4 .8-2.4 2-4.2 1.4-2 3-3.3a7 7 0 0 1 3.6-1.6q1.8-.3 2.6.6 1 .8 1 2 0 1.6-.6 2.8-.4 1.4-1.3 2.4-.7 1-1.8 2a52 52 0 0 1-5 4.5q0 1.1.5 2l1.1 1.1q.6.5 1.4.6h1.5q1.4-.2 3.2-1.3l3-2.8a35 35 0 0 0 4.9-6.3q.2-.4.6-.5h.5q.3.2.3.6t-.2.9m-12.7-5.8q-.6 0-1.3.7t-1.3 1.8-1.1 2.7q-.6 1.5-.6 3.6l1.1-1 1.2-1.1a13 13 0 0 0 2.5-3q.6-1.3.6-2.2t-.3-1.2z"/>
  <path fill="#000" d="M234.7 110.4a70 70 0 0 1-6.2 9.4q-.8 1-1.5 1-1.5.3-2.5-1t-1.8-3.3a27 27 0 0 1-1-13.1q.2-.7.7-1a5 5 0 0 1 2-.8h.7l.6.2v.6l-.1 1.3-.5 6.3a18 18 0 0 0 1 5.3l.8 1.3.6.4.7-.7 1.3-1.9a28 28 0 0 0 2.9-5.5q-.4-.7-.5-1.8 0-1.5.4-2.9t1-2.3 1.4-1.5q.6-.7 1.3-.7 1.2-.2 1.6.5.3.5.3 1.2 0 1-.5 2.8l-1.6 3.9.5.1h.7a10 10 0 0 0 5-1.8l1.5-1.2 1.5-1.5.5.1.2.4-.2.6a13 13 0 0 1-3.7 3.8 12 12 0 0 1-6.2 2z"/>
  <path fill="#000" d="M216.2 113.4q-.3 1.9-.9 3.5-.7 1.5-1.6 2.9a8 8 0 0 1-5.2 3 5 5 0 0 1-3.1-.5q-1.2-.7-1.9-1.9t-.9-2.5l-.4-2.7v-2a15 15 0 0 1 2.1-6.8 4 4 0 0 1 2-2.6q.7-.5 1.6-.8.8-.4 1.7-.5h.2l.3.1 1.5.3a7 7 0 0 1 4.6 6l.1 1.9a24 24 0 0 0 4.2-2.8 30 30 0 0 0 4-3.6l.5.1.1.7q0 .4-.4 1l-1 1.2a33 33 0 0 1-7.5 6m-8.7-6.1v.9l.2 1.5.7 1.4q.4.7 1.3 1t2.3.2h.5l.4-.2.2-2a9 9 0 0 0-.8-3.5q-.3-.7-.8-1.2t-1-.4q-.9 0-1.7.7t-1.3 1.6m-2 8.5.2 1.7q.2.8.6 1.4l.8.9q.6.3 1.3.2t1.5-.5a6 6 0 0 0 2-2.7l.5-1.8-.6.1h-.7q-1.7.3-3.1-.6t-2.3-2.5zm-23.3-13.3-.7 6.1-.6 8.8-.1 7.3a43 43 0 0 0 1.4 7.7l-1.3.7-1.7.5h-1q-.4 0-1-.3l-.8-1.2q-.3-1-.4-2.6v-2.8a89 89 0 0 1 1.4-12.2l1.4-11.2 1.4-11.7.6-.5 1.2-.8q1.5-.7 2.1-.4t1 1.6l1.1 5.9a150 150 0 0 1 2.1 14l2.1 10 1.3 3.5.7-6a124 124 0 0 0 1-15.2l-2-.6-.8-.6v-.9q0-.3.5 0l2.3.3a76 76 0 0 1 1.3-9 12 12 0 0 1 1.2-3q.7-1.1 1.9-1.9 1-.7 2.6-1 1.5 0 2.5 1t1.2 4q.2 2.2-.5 4a12 12 0 0 1-6.4 7.3l-.5 9a100 100 0 0 1-1 10.4q0 1.5-.4 3.3l-.5 4-.4.7-.5.6-.6.4q-.9.6-1.6.4t-1.3-1.2-1.2-2.5L188 125a41 41 0 0 1-2-9l-1.4-9.4-2-8.6-.2 2.1zm15.4-3.7-.2 1.7a10 10 0 0 0 3.4-4.2 11 11 0 0 0 1-4.4l-.2-1q-.2-.4-.6-.4t-.7.4q-.4.1-1 1.2-.5.8-1 2.4t-.7 4.3M158 129q0-.7-1.3-1-1-.3-2.4-.3a36 36 0 0 0-6 .6q-1 .2-1.9.6t-1.2.8q-.6.6-1.6.4-.9 0-1.5-1.4 0-.6-.3-1l-.4-.7-.5-.6a19 19 0 0 1 4.8-7.5l5.2-6a24 24 0 0 0 4.3-9q.8-2.5.5-5.4 0-2.4-1.2-3.3a3 3 0 0 0-2.3-.6q-.7 0-1.4.7-.8.6-1.5 1.7-.6 1-1.1 2.3a7 7 0 0 0-.2 3.4l.3.6.4.3-1.4 1-.7.1h-.8l-1-.1-.9-.7q-.4-.6-.4-1.4 0-.9.5-2.5.6-1.5 1.8-3.1c1-1 2-2 3.4-2.9a12 12 0 0 1 5-1.6q2-.3 3.1.5 1.2.7 1.8 1.8t.8 2.3l.2 2q.1 2-.5 4a34 34 0 0 1-4 8.5 62 62 0 0 1-8.2 10.2l-1.7 2.3-.7 2.1a19 19 0 0 1 12.2-2.5q1 0 1.4.5l.3 1.7-.1.8a7 7 0 0 1-.7 2.3m-21.4 2.5q-.2-.7-1.3-1l-2.5-.3a36 36 0 0 0-5.9.6l-2 .6q-.9.3-1.2.8-.6.6-1.6.4-1 0-1.4-1.4l-.4-1-.4-.7-.5-.6a19 19 0 0 1 4.8-7.5l5.2-6a24 24 0 0 0 4.4-8.9q.6-2.6.5-5.5-.3-2.4-1.2-3.2a3 3 0 0 0-2.4-.7q-.6 0-1.4.7t-1.5 1.7-1 2.3a7 7 0 0 0-.3 3.4l.3.6.5.3-1.4 1-.7.1-1 .1-1-.2-.8-.7q-.3-.5-.4-1.4 0-.9.5-2.5.6-1.5 1.9-3 1.3-1.7 3.4-3a12 12 0 0 1 5-1.6q2-.2 3 .5 1.2.8 1.8 1.8.6 1.2.8 2.4l.2 1.9q.2 2-.5 4a33 33 0 0 1-4 8.5 61 61 0 0 1-8.1 10.2q-1.2 1.2-1.8 2.4-.5 1-.7 2a19 19 0 0 1 12.2-2.5q1 .1 1.4.5a5 5 0 0 1 .2 2.5 7 7 0 0 1-.7 2.4m-19.3-12.9a59 59 0 0 0-7.3.9 40 40 0 0 0-7.8 1.9v-1.4l.1-.7.4-1 .6-.8 1-.3 1.6-.3 4.7-.7a56 56 0 0 1 7.3-.6q.7 0 .7.3.3.3 0 1.2l-.4 1.2q-.3.3-1 .3m-20.1 4.2-.5 2.8a30 30 0 0 0-.2 6.2q.3 1.5.8 2.9l-1 .4-2.2.5q-.8 0-1.2-.2t-.7-.8l-.2-1.2.2-1.6 1.2-6.8a149 149 0 0 0 2-18.7l-1.5-.8-1.1-1 .6-1 3-3.4q.8-.8 1.4-.8l.5.1.8.5.6.6.3.6zm-11.7 14.5q-.2-.7-1.4-1l-2.4-.2a36 36 0 0 0-6 .5l-1.9.6q-.9.3-1.2.8-.7.6-1.6.4-1 0-1.5-1.4l-.4-1-.3-.7-.5-.6a19 19 0 0 1 4.7-7.5l5.3-6a24 24 0 0 0 4.3-8.9q.8-2.6.5-5.5 0-2.4-1.2-3.2a3 3 0 0 0-2.3-.7q-.8 0-1.4.7-.8.6-1.5 1.7l-1.1 2.3a7 7 0 0 0-.2 3.5l.3.5.4.3-1.4 1-.7.2h-.9l-1-.2-.8-.7q-.3-.5-.4-1.4 0-.9.5-2.4t1.8-3.2c1-1 2-2 3.4-2.9a12 12 0 0 1 5-1.6q2-.2 3.1.5t1.8 1.9q.5 1 .8 2.3l.2 1.9q.1 2-.5 4a34 34 0 0 1-4 8.5 61 61 0 0 1-8.2 10.2q-1 1.2-1.7 2.4-.5 1-.7 2a19 19 0 0 1 12.2-2.5q1 0 1.4.6l.2 1.7v.7a7 7 0 0 1-.7 2.4M453.2 58q2-.2 3.1-.1 1.3 0 2.2.5t1.2 1.8v2.3l-.4 1v.1l-.5 1q-.3.7-.9 1.3l-.8 1-.8-1q-.3-.7-1.4-1l-2.5-.6a22 22 0 0 0-4.9.4l-1.7 9.2.5-.4q.8-.8 2-1.3a7 7 0 0 1 5.5-.4 5 5 0 0 1 2.2 1.7q.9 1 1.2 2.4l.1.4q.4 1.2.4 2.5a22 22 0 0 1-3 11.8 17 17 0 0 1-3.6 4.4q-2.2 1.8-4.9 2-1.5.2-2.8-.3a8 8 0 0 1-3.7-3l-.2-.3q-.7-1.2-.7-2.5 0-2.4 2-4.4l.9-.7.7-.6.8-.5 1.4-.6v1.5q0 2.2.5 3 .5.9.9 1.2h.1q.5.4 1.4.4 1.1 0 2-.9 1-.9 1.7-2.2t1-3 .3-3.3q0-2.2-.8-3-.6-.8-1.4-.7-1 .1-1.9 1-1 1-1.9 2.3-.4.8-1.2 1.2l-1.3.3h-1.3l-.9-.4-.5-.3-.8-.9-.5-1.4.2-2.3.3-1.3.3-1.6 1.9-9.8V63l.2-.5-1.4.1.7-.8-1.4-.5 2.5-.8.4-.2 3-1 3-.8zm.1 1a31 31 0 0 0-8.4 2l-1 .4v.6l-.2 2a50 50 0 0 1-1.2 6.4l-1.3 6.4-.2 2q0 .6.4 1l.4.6.5.2.6.3h1l1-.2.8-.8 2-2.5q1.2-1 2.5-1.3 1.4 0 2.3 1.1 1 1.2 1 3.6 0 1.8-.3 3.5-.3 1.8-1.1 3.3-.7 1.5-1.9 2.5t-2.6 1.1q-1.2 0-2-.5t-1.4-1.6-.6-3.5l-.6.4-.7.5-.7.7q-2 1.8-1.8 3.7 0 1 .5 2a7 7 0 0 0 3.5 2.9q1 .5 2.3.3 2.4-.3 4.3-2a16 16 0 0 0 3.4-4 21 21 0 0 0 2.5-13.9q-.3-1.2-1-2a4 4 0 0 0-1.9-1.4q-1-.5-2.6-.3-1 0-2 .6-1 .4-1.9 1.2l-1.4 1.3-1 1.3a96 96 0 0 1 2.2-13l2.3-.5h3.5q1.3 0 2.7.5 1.3.4 2 1.4l.7-1.1.5-1 .3-.9v-2q0-.7-.7-1t-1.7-.4zM435 93.7l-.1-.9q-.5-.5-1.5-.5l-2-.2-2.8.2a16 16 0 0 0-7.4 2.5l.8-2.1q.6-1.2 1.7-2.4a95 95 0 0 0 8-10 34 34 0 0 0 4.2-8.6 12 12 0 0 0 .2-6q-.2-1.2-.8-2.3t-1.7-1.8-3.1-.5a12 12 0 0 0-8.4 4.5q-1.3 1.5-1.9 3.1a7 7 0 0 0-.4 2.5q0 .9.3 1.3l.9.7 1 .3.9-.1.7-.2q.8-.3 1.4-1l-.5-.3-.2-.5-.2-.7q0-1.4.3-2.7l1.1-2.4q.8-1 1.5-1.6.8-.7 1.4-.8a3 3 0 0 1 2.4.7q1 .8 1.2 3.2.2 3-.5 5.6t-1.8 4.8-2.6 4.1-2.7 3.2L420 90l-1.6 2.4-1.2 2.6.5.6.8 1.8q.4 1.2 1.5 1.4 1 .1 1.5-.4t1.3-.9l2-.5a21 21 0 0 1 8.3-.3q1.2.3 1.3 1a8 8 0 0 0 .8-3.2zm1 0 .1.8v1l-.2.8-.7 1.7-1.2 2.6-.6-2.7-.6-.2q-1-.3-2.3-.3a35 35 0 0 0-5.6.6q-1 .1-1.9.5l-.8.5v.1q-1.1.9-2.4.7-1.8-.4-2.4-2.1l-.3-.8-.6-1-.6-.5.3-.7 1.3-2.8 1.6-2.5 2-2.5 2.6-2.7 2.6-3.2q1.5-1.8 2.5-4t1.7-4.6.5-5.2q-.2-2.2-.8-2.5a2 2 0 0 0-1.6-.5l-1 .5q-.6.5-1.2 1.5t-1 2.1a6 6 0 0 0-.3 2.3v.4h.1v.2h.1v.1l1.5.6-1.1 1q-.7.9-1.8 1.3l-.9.2h-1q-.8 0-1.4-.2-.7-.4-1.2-1-.6-1-.6-2 0-1.2.5-2.8t1.7-3l.3-.5q1.5-1.7 3.7-3a13 13 0 0 1 5.4-1.8q2.1-.3 3.7.6 1.4.9 2.1 2.2t1 2.7l.1 2q.2 2.1-.5 4.4t-1.7 4.5-2.5 4.3a62 62 0 0 1-8.2 10.2l-1.3 1.7.7-.3q2-.8 4.7-1.1l2.8-.2q1.2 0 2.3.2 1.1 0 1.9.7l.2.3.1.2zm-29.2-30.9a5 5 0 0 1 3.9 1.2l.2.1q1.5 1.4 2.5 3.5l.3.5a31 31 0 0 1 1.9 10.5q0 6.3-1.3 10.6a26 26 0 0 1-3.1 7 13 13 0 0 1-4 4.1 9 9 0 0 1-3.7 1.5q-1.5.3-2.8-.5-1.5-.8-2.6-2.3-1.2-1.6-2-4a29 29 0 0 1-.6-16.5q.6-2.9 1.6-5.4 1.2-2.7 2.5-5 1.5-2.1 3.2-3.6t4-1.7m0 1q-1.8 0-3.4 1.5-1.7 1.4-3 3.4-1.3 2.1-2.3 4.7a39 39 0 0 0-2.4 10.7q-.3 2.7 0 4.8.4 3.4 1.3 5.7t1.9 3.8 2.2 2 2.3.4q1.4 0 3.3-1.3 2-1.1 3.7-3.8a25 25 0 0 0 3-6.7 38 38 0 0 0 .6-16.1q-.4-2.8-1.5-4.9a9 9 0 0 0-2.4-3.2 4 4 0 0 0-3.2-1m2.9 10.7-.4-2.6-.6-2.3q-.4-1-1-1.5a1 1 0 0 0-.9-.4l-.6.4-1 1.3q-1.3 1.8-2.4 5a41 41 0 0 0-1.6 16.7l1 3.7q.3 1 .9 1.7.4.5.7.3v1q-.8 0-1.5-.7-.6-.8-1.1-2l-1-3.8a39 39 0 0 1 1.6-17.3 22 22 0 0 1 2.5-5.2q1.4-2 2.4-2a2 2 0 0 1 1.7.5q.8.7 1.2 1.9.5 1.1.7 2.5a27 27 0 0 1 .5 5v1.1a41 41 0 0 1-4.3 18q-1.3 1.9-2.6 2l-.1-1q.6.1 1.8-1.6a19 19 0 0 0 2.1-4.6 40 40 0 0 0 1.9-16.1m-19.4 24.3-.2-1q-.3-.3-1.4-.5l-2-.1-2.8.2a16 16 0 0 0-7.4 2.5q.2-1 .8-2.1t1.7-2.4a93 93 0 0 0 8-10 34 34 0 0 0 4.1-8.6 12 12 0 0 0 .3-6q-.2-1.2-.8-2.3-.6-1.2-1.7-1.9t-3.1-.5a12 12 0 0 0-8.4 4.5q-1.3 1.5-1.9 3.2a7 7 0 0 0-.5 2.4q0 .8.4 1.4t.9.7l1 .2h.9l.7-.2 1.4-1-.5-.3-.2-.5-.2-.7q0-1.5.3-2.7.5-1.4 1.1-2.4t1.5-1.7q.8-.6 1.4-.7a3 3 0 0 1 2.4.7q1 .8 1.2 3.2.2 3-.5 5.5-.7 2.6-1.8 4.9-1.2 2.2-2.6 4-1.4 2-2.7 3.3l-4.5 5.1-1.6 2.4-1.2 2.7.5.6.8 1.7q.5 1.4 1.5 1.5t1.5-.5q.3-.4 1.2-.8l2-.6a22 22 0 0 1 8.4-.2q1.1.2 1.3.9a8 8 0 0 0 .8-3.1zm1-.1v1.9l-.2.8q0 .7-.6 1.7l-1.2 2.6-.7-2.7-.5-.3-2.3-.2a35 35 0 0 0-5.7.5l-1.8.5-.8.5v.1q-1.1 1-2.5.8-1.7-.4-2.3-2.1 0-.5-.3-.8l-.6-1.1-.6-.5.3-.6 1.3-2.9 1.6-2.5 2-2.4 2.6-2.8 2.6-3.1q1.5-1.8 2.5-4t1.7-4.6q.6-2.5.5-5.2-.2-2.1-.9-2.5a2 2 0 0 0-1.6-.5l-.9.5q-.6.5-1.2 1.4-.6 1-1 2.2-.4 1-.3 2.3v.4h.1v.2h.1v.1l1.5.5L381 78a5 5 0 0 1-1.8 1.2l-1 .3h-.9q-.8 0-1.4-.3-.8-.3-1.2-1-.7-.8-.7-2t.6-2.8 1.7-3l.3-.4q1.5-1.8 3.7-3.1a13 13 0 0 1 5.4-1.8q2.1-.2 3.7.7 1.4.9 2.1 2.2.8 1.2.9 2.6l.2 2q.2 2.3-.5 4.5t-1.7 4.4T388 86a62 62 0 0 1-8.2 10.2q-.9 1-1.3 1.7l.7-.3q2-1 4.6-1.1 1.5-.3 3-.2l2.2.1q1 .1 1.8.8h.1l.2.2.1.3zm-41.1 3.3q1.5-1.2 3.1-1.1t2.6 1.3q.7 1.2.6 2.7l-.3 1.5a10 10 0 0 1-3.7 5.7q-.6.4-1.3.4t-1.2-.6-.2-1.2q0-.6.5-1l.7-1.3.2-.5a3 3 0 0 1-1.5-.7q-1-1-1-2.2a4 4 0 0 1 1.5-3m3.1-.1q-1.3 0-2.4.9a3 3 0 0 0-1.1 2.1q0 1 .5 1.5t1.3.5h.5l.4-.1q0 1-.6 2t-.9 1.5l-.2.6v.4q0 .3.4.2l.7-.2q1-.7 1.7-1.6a9 9 0 0 0 1.9-4.9q0-1.2-.5-2-.5-1-1.7-1"/>
  <path fill="#000" d="M352.2 93q.6-.3 1.3-.2l.2.1q.8.4 1 1.2.2 1-.3 1.8l-2.2 4.2-1.9 2.9q-1 1.6-2.2 2.8-1.2 1.3-2.6 2.2a6 6 0 0 1-2.8 1.2 5 5 0 0 1-4.3-1.5v-.1q-.7-.7-1-1.7t-.4-1.8l.1-1.5.5-1.5.6-1.5.6-1.4 1-2.4.3-1.3-.5.1h-.2l-.7.2-1.4-.1-.4.7-1.2 2.7-1.5 3.2-1.4 3.2-1.1 2.5-.7 1.2q-.3.8-1 1.2t-1.4.2q-.9-.2-1.2-1-.2-1 0-1.7l.3-.6 1.7-1.7-1 3.6q0 .4.4.4h.7l.6-.8 1.8-3.7 4.8-10.6.8.2h2l.2-.1.5-.1q.4 0 .6.2l.3.8q.1.6-.4 1.7l-1.5 3.8-1.1 2.8a4 4 0 0 0 .2 2.7q.3.8.8 1.5t1.5 1a4 4 0 0 0 2 .2 5 5 0 0 0 2.4-1l2.3-2a26 26 0 0 0 4-5.6l2.2-4q.3-.9.2-1.2 0-.5-.4-.6l-.6.1q-.5.1-.6.6l-2 3.4-3.3 4.5q-.8 1-1.8 1.8-.7.7-1.6.7l-.1-1q.4 0 1.1-.5l1.7-1.6a30 30 0 0 0 4.4-6.5l.7-1.3q.4-.7 1-1M336 84q1.5-.2 2.8 1 .7 1 1 2a6 6 0 0 1 0 2.7h.4q.5-.3 1.2-.3a3 3 0 0 1 2 .4q.8.5 1.3 1.1t.7 1.5l.4 1.3q.3 1.5-.4 3.1l-1.5 3-1 2.2q-.5 1-.3 1.5l.1.4h.6v1q-.9.1-1.3-.2l-.4-1q-.2-.9.3-2.1l1-2.3q1-1.5 1.6-3 .6-1.2.3-2.4l-.3-1.2-.7-1.2q-.3-.6-.9-.9a2 2 0 0 0-1.4-.2q-.6 0-1 .2l-1 .2h-.7l-.4-.2q.5-.8.5-1.8v-1.5q-.3-1-1-1.7-.5-.8-1.8-.6-.8 0-1.4.8l-1.2 1.7-.7 2q-.3 1-.1 1.6 0 .7.4 1l.7.5-2.4 6.3-2 2.6 1.7-4.7 1.5-3.9h-.2v-.1l-.5-.7-.2-.7q-.2-1 .1-2.1l.8-2.2.2-.3q.4-1 1.2-1.7.8-1 2-1.1"/>
  <path fill="#000" d="m314.5 96.6-.6 1.6q-.8 2.3-.8 4.2 0 2.3.8 3.9.8 1.5 1.9 2.5t2.3 1.2q1.3.4 2.3.3 2-.3 4-1.4 1.8-1.2 3.7-3l.6.7-.1.3q-1.8 1.6-3.8 2.8-2 1.3-4.3 1.6-1.2 0-2.7-.3-1.5-.5-2.6-1.5a9 9 0 0 1-2.2-2.8q-.8-1.8-.9-4.3 0-2.2.8-4.5l.2-.6zm14.9 8-.5 1.3-.2.7-.6-.6zm-7-16.5q2-.3 3.4.9 1.2 1.1 1.3 2.8 0 1.7-.7 3.2-.5 1.4-1.4 2.6l-2 2-1.8 1.8-1.8 1.5-.8.7-.2.3q0 .6.4 1 .3.6.8.9l1 .4h1.1l.1 1h-1.5l-1.3-.6q-.6-.5-1-1.2-.6-.7-.7-2l3.3-2.8 3.6-3.6q.8-1.2 1.3-2.4.6-1.3.6-2.8 0-1.2-1-2t-2.7-.7a7 7 0 0 0-3.5 1.6q-1.6 1.4-2.9 3l-.1.2-1.6.8.7-1.2q1.4-2.1 3.2-3.6a8 8 0 0 1 4.1-1.8m10.2 7.5-1.7 4a35 35 0 0 1-5.9 6.2q-1.5 1.2-3.2 1.4v-1q1.2-.1 2.7-1.2 1.5-1.2 2.9-2.7l.4-.4q1.3-1.3 2.2-2.8l2.1-2.9zm2.2 2 .6-1.1v.2l-.3 1.5-2.2 3.5.4-.8zM321.4 92q.6 0 .9.4.3.3.3 1.2t-.6 2.1a13 13 0 0 1-2.5 3l-2.3 2.1a15 15 0 0 1 1.6-6.3l1.4-1.8q.7-.6 1.2-.7m.1 1-.7.5q-.5.4-1 1.5-.7 1-1.1 2.5l-.2.7.3-.2q1.7-1.7 2.3-2.8t.5-1.6z"/>
  <path fill="#000" d="m314.5 96.6-.6 1.5a22 22 0 0 1-4.4 1.5q0 1.5-.5 3l-.2.7q-.8 2.3-2 4.4-1.3 2-3 3.7a7 7 0 0 1-5.3 1.8 4 4 0 0 1-2.3-1 8 8 0 0 1-2-2.9l-.5-2 .7-1.2q.3 1.7.8 2.8.7 1.8 1.7 2.5a3 3 0 0 0 1.7.8h1.4q1.6-.2 3.1-1.6c1-1 2-2 2.8-3.4q1.1-2 2-4.2.7-2.4.6-4.2.9 0 1.9-.4a21 21 0 0 0 4-1.8m-14.2-20.3a4 4 0 0 1 2 0h.1l.7.7.1.7.2 1.5q.1 2-.4 5.1a65 65 0 0 1-3.6 15l-1.2 3.1q0 3.2.6 4.9.3.9.6 1 .1.3.4.2v1q-1.2.1-2-1.9-.6-2-.6-5.4l2.6-7.5a70 70 0 0 0 2.6-15.4q0-2-.4-2l-.7-.1-1 .2-1 .5-1 .8-.7 1.8a52 52 0 0 0-2 8 72 72 0 0 0-1.5 14.3l-.2.4-.7 1.2v-.6q-.3-2.4 0-5a76 76 0 0 1 1.3-10.6l2.1-8 1-2q.5-.8 1.1-1.2l1.3-.5zm1.4 20.7q-.1-1 .3-1.8V95a5 5 0 0 1 3.7-2.7q1.5 0 2.4 1.3.6.8 1 1.9l2.7-.8 3.1-1.4.5-.3q.6-.4 1.4-.3l-.8 1-.1.2a25 25 0 0 1-7.6 2.7q-.4-1.5-1-2.4-.7-1-1.5-.9-.5 0-1.1.4a4 4 0 0 0-1.8 1.9q-.3.6-.2 1.2 0 1 .7 1.6.7.4 1.6.6 0 1.4-.4 3.1t-1 3.4-1.6 2.7-2.1 1.3l-.1-1q.6 0 1.4-1t1.5-2.4l1-3.2.3-2.1-1.1-.6q-1.1-1-1.2-2.2"/>
  <path fill="#000" d="m294.4 106.1.4 1.5-1.7 2.3q-1.4 2-3.2 3.5a8 8 0 0 1-5.7 1.8q-.8 0-1.6-.5t-1.3-1.2q-.6-1-.7-2V109l.6-5.4.2-3.5-.2-.1-.2.1-.8.5a9 9 0 0 0-1.9 2.3q-1 1.5-1.9 4.4-.9 2.6-1 6.9v.5l-.5.2q-.9.7-1.8 1l-.8.2H271q-.6 0-1-.4-.5-.7-.5-1.3v-1.3l.5-2.2a46 46 0 0 0 1-6.6V101h-.4l-.7.4q-.7.5-1.7 1.8t-1.9 3.8q-.8 2.3-1.2 6.2v.3h-.1v.4l-.1.6v.9l-.1.4-.5.3-2.2 1.2-.8.4a2 2 0 0 1-1.3-.2 2 2 0 0 1-1-1.1q-.4-1-.2-2l.5-3.8q0-.3.3-.4l.9-1.4-.7 5.7v1.5q.3.6.6.6h.6l.6-.1 2.2-1.3v-.4l.1-.7v-.3l.2-.8q.3-3.8 1.3-6.3t2-4 2-2.1l1.3-.7q.6 0 .9.3t.4 1.1v3a49 49 0 0 1-1.4 9q-.3 1.3 0 1.6.4.4 1.3.2l.7-.2q.7-.2 1.6-.8.3-4.2 1.2-7.1 1-3 2-4.6a10 10 0 0 1 2.1-2.6l1.4-.8q.9 0 1.2.5.4.6.3 1.9l-1 7.6.1 2.3q.1.9.5 1.5a3 3 0 0 0 2.2 1.3h1.3a7 7 0 0 0 3.7-1.6q1.6-1.4 3-3.3zm-.4-5.2v2l-.1.3a40 40 0 0 1-4.6 6.4q-1.2 1.2-2.4 1.4l-.1-1q.6 0 1.8-1.1t2.3-2.8a40 40 0 0 0 3.1-5.2m3.9-.5q0 .8-.2 1.4l-.5 1v-.6zm-37.4-.4v-.5l-.4-.8.8-.5 2.4-1.2h.2l.8-.3 1.2.2q.6.2.9.9.3.5.3 1.1l1.5-1.5 2-1.7q1.3-.6 2.5-.8 1-.1 2 .5t1.4 1.5l.5 1.5 1.7-2 2.1-1.7a6 6 0 0 1 2.5-.9q1.6-.1 2.8.8 1 .9 1.4 2.2.5 1.3.5 2.8v2.8l-1 6.5v.8l.1.3.2 1q-1.5.2-1.2-2.2l.8-6.5.1-2.6q0-1.5-.4-2.5-.4-1.2-1.2-1.8-.7-.8-2-.6a5 5 0 0 0-2 .8 12 12 0 0 0-3.7 3.6l-1.4 2-.2-2q-.1-1.2-.5-1.8-.4-.8-1-1.2-.6-.5-1.4-.3-1 0-2 .7l-2 1.5a22 22 0 0 0-3.4 4.3l.3-2.2q.2-2.7-1.2-2.5-.4 0-.8.3l-2.3 1 .1.9v2.2l-.4 2.9-1.2 1.8.6-4.8z"/>
  <path fill="#000" d="m241.5 108.8-.1 1.7q0 2.4.7 4 .8 1.5 2 2.4 1 .9 2.2 1.2 1.3.5 2.3.3 2-.2 4-1.4t3.7-2.9a31 31 0 0 0 4.3-5.2l-.3 2.2q-1.5 2-3.3 3.7a21 21 0 0 1-4 3q-2 1.4-4.3 1.6-1.2 0-2.6-.3-1.5-.5-2.7-1.4a9 9 0 0 1-2.2-2.8 10 10 0 0 1-.8-5.5zm9-12.5q2.1-.3 3.5.8 1.2 1.1 1.3 2.8 0 1.7-.6 3.2-.6 1.4-1.5 2.6t-2 2.1l-1.7 1.7-1.8 1.6-.8.7-.3.2q.1.6.4 1l.8 1 1 .3h1.2v1h-1.4q-.8-.2-1.4-.6-.6-.5-1-1.2-.6-.7-.7-1.9l3.3-2.8 3.6-3.7q.9-1 1.3-2.4.6-1.3.6-2.7t-1-2.1q-1-.9-2.6-.6a7 7 0 0 0-3.6 1.6q-1.7 1.4-3 3.3-1.2 1.8-2 4.1l-.2.1-1 .7.2-1q.9-2.4 2.2-4.5 1.4-2 3.1-3.5a8 8 0 0 1 4.2-1.8m10.8 7.2-.2 1.5a63 63 0 0 1-4.8 6.2l-3 2.8q-1.7 1.1-3.2 1.3l-.1-1q1.2 0 2.7-1.2 1.5-1 3-2.6l.3-.4 2.3-2.9 2-2.9zm-11.6-3.4q.5 0 .8.3t.3 1.2-.6 2.1a13 13 0 0 1-2.5 3l-2.3 2.2a15 15 0 0 1 1.7-6.3l1.3-1.8q.7-.7 1.3-.7m0 1-.7.4q-.5.6-1 1.6l-1 2.5-.3.7.3-.3q1.8-1.6 2.3-2.7t.5-1.7z"/>
  <path fill="#000" d="m241.5 108.8-.1 1.2a14 14 0 0 1-6.1 1.5 72 72 0 0 1-4 6.6 18 18 0 0 1-3 3.3q-.5.4-1.2.4-2 .3-3.4-1.4-1.2-1.5-2-3.5-.7-2.2-1-4.5l-.3-1.8.9-.9a42 42 0 0 0 1.4 6.8q.8 2 1.8 3.3 1.1 1.2 2.5 1 .7 0 1.5-1l2-2.3a45 45 0 0 0 4.2-7h1.6q3-.3 5.2-1.7m-5.6-10.1q1.6-.3 2.5.9.6.8.5 1.8 0 1.3-.6 3.1l-1 2.7q1.2-.2 2.1-.6l2-1 1.3-1.1.3-.3-1 2.1v.1a11 11 0 0 1-5 1.9h-.7l-.5-.2q1-2.1 1.6-3.9.5-1.8.5-2.8l-.3-1.2q-.4-.6-1.6-.5-.7 0-1.3.7-.8.5-1.4 1.5a10 10 0 0 0-1.4 5.2q0 1 .5 1.8a32 32 0 0 1-5 8l-.5-.3-.7-1.3q-.4-.9-.7-2.2a18 18 0 0 1-.3-5.3l.5-6-.6-.3h-.8l-.7.3-1.2.6q-.5.3-.8 1l-.3 1.8-.1 2.2-.7.6-.3.2V105l.5-2v-.1q.4-.8 1-1.4h.1l1.4-.7.2-.1.7-.2h1q.6 0 1.1.3l.2.1v.1q.5.7.4 1.5l-.1.5-.3 2.6-.3 4.3a17 17 0 0 0 1 4.9l.4.7 1.1-1.7 1.5-2.5 1.2-2.5-.4-1.7q0-1.8.4-3.3t1.2-2.6 1.5-1.7l.2-.2q.7-.6 1.7-.7m10 6.6.7-1.7v.5q.2.8-.3 1.3l-.6.8z"/>
  <path fill="#000" d="M205.5 115.8V114l.2-2q.8 1.5 2.3 2.5t3.1.7h.7l.6-.2a12 12 0 0 1-1.4 3.3q-.5.8-1.1 1.2-.8.5-1.5.5l-.1-1q.6 0 1-.3a5 5 0 0 0 1.6-2.3v-.2q-1.8.1-3.5-.8l-1-.8v1l.3 1.6.1.3q0 .5.3.8l.6.7h.6v1l-1.2-.2q-.5-.4-.8-1t-.6-1.3zm2-7.6v-1l1.3-1.5q.8-.6 1.7-.7.6 0 1 .4t.8 1.2l.6 1.7a9 9 0 0 1 .1 2.7v1l-.5.2h-.5q-1.4.2-2.3 0-.9-.5-1.3-1l-.7-1.5zm13.7-2.1v1.3a29 29 0 0 1-4.9 3.4V109a7 7 0 0 0-4.7-6q-.9-.4-1.5-.4h-.5q-1 0-1.7.4a6 6 0 0 0-2.9 1.9l-.7 1.5a12 12 0 0 0-1.8 4.5 15 15 0 0 0 1 9.5q.7 1.2 1.9 1.9a5 5 0 0 0 3.1.5q1.5-.3 3-1 1.3-.8 2.2-2 1-1.3 1.6-3 .6-1.5.9-3.4 1.3-.6 2.8-1.7l2.3-2 .1 1.3-4.3 3.1q-.3 1.7-.9 3.1-.6 1.8-1.7 3.2-1 1.4-2.6 2.2-1.4.9-3.3 1.2a6 6 0 0 1-3.7-.7q-1.5-.7-2.2-2.1t-1-3q-.4-1.4-.5-2.7V113a16 16 0 0 1 1-4.8l1.2-2.3.8-1.7 1.5-1.4 1.8-.9 2-.5h.5v.1h.2q.8 0 1.7.4a8 8 0 0 1 5.3 6.9v.2a28 28 0 0 0 4-3m4.4-2.4.2.2q.4.7.3 1.4 0 .8-.6 1.4l-.3.4zm-17.1 4.3q0 .8.2 1.5v.3l.5.7q.2.4.8.7t1.9 0l.1-.3v-.8a8 8 0 0 0-.6-3l-.6-1h-.1q-.7 0-1.2.4t-1 1.1zm-21-2.7a84 84 0 0 0-2-11.3l-.4-2.4q-.3-1.2-1-1.6-.6-.3-2 .4l-.7.3-.6.5-.6.5-1.4 11.7-1.4 11.2-1 8.5-.4 6.5q0 1.7.4 2.6.4.8.9 1.2t1 .3h.9l.8-.2 2.2-1-.7-2.3-.7-5.4q-.1-1.3 0-3.2l.4-8.5.7-8 .5-4.9.2-2.1a52 52 0 0 1 2 8.6 100 100 0 0 1 1.4 9.4l.9 4.8a41 41 0 0 0 3.5 10.1q.6 1 1.3 1.2t1.6-.4l1.1-1 .4-.7.5-4a152 152 0 0 0 1.7-18l.3-4.5a12 12 0 0 0 6.4-7.3q.7-2 .5-4-.1-3-1.2-4-1-1.2-2.5-1t-2.6 1q-1.2.6-1.9 1.9a12 12 0 0 0-1.2 2.9l-.7 3.7-.6 5.3-2.3-.4q-.4-.1-.5.1v1l.8.5 1 .4 1 .2-.4 8a136 136 0 0 1-1.3 13.2l-.3-.6-1-2.9a144 144 0 0 1-3-16.2M201 90.5q.5 0 .6.3l.2 1-.2 2.2q-.2 1-.8 2.3l-1.4 2.4-2 1.8.2-1.7q.3-2.7.7-4.3.5-1.6 1-2.4.6-1 1-1.2.4-.4.7-.4m-.2 1.2-.6.8-1 2.3-.5 3a12 12 0 0 0 2-4l.1-1.9zm-12.3 13.4a95 95 0 0 0 1.5 9.6l.3 1.8 1 4 .1-1.7.6-7.2.3-7.1h-.3l-1-.5q-.7-.3-1-.8l-.3-.3v-1.4q0-.4.2-.6.3-.4.7-.4h.8l1 .3.2-1.7 1.2-6.5a13 13 0 0 1 1.3-3.1q.8-1.5 2.1-2.3 1.4-1 3-1.1 2-.2 3.4 1.2Q205 89 205 92q.2 2.3-.5 4.4a13 13 0 0 1-4.2 6.2l-2.2 1.4-.3 4-.8 11.7-.3 3.2-.5 3.3-.5 4-.6 1.1-.6.7q-.4.5-.8.6-1 .6-2.3.4-1.2-.4-2-1.5l-1.2-2.7-1.2-3.4q-.7-2-1.2-4.4l-.9-4.8-1.4-9.4-.6-3-.1 1.3-.4 3.6-.6 8.8-.2 4a28 28 0 0 0 .4 6l.2 1.1.2 1.3.1.6.6 1.5.3.8-.7.4-1.5.8-1 .4-2 .2q-1 0-1.6-.5-.7-.7-1.2-1.6-.5-1.2-.5-3v-2.9l.8-8 1-8.1 1-7.3v-.6l.1-.1v-.8l.1-.1v-.8h.1v-.9h.1V99l.1-.1v-.8h.1v-.9h.1v-.8l.1-.1v-.8h.1v-.9h.1v-.8l.1-.1V93l.1-.2v-.6l.1-.3v-.5l.1-.4.3-.3.7-.5 1.4-1 1.5-.5 1.5.2q1.3.9 1.4 2.3l1.2 6 .7 4 .2 1zM158.8 125l-.2-.9q-.5-.4-1.4-.5l-2.1-.2-2.8.2a16 16 0 0 0-7.3 2.5q.2-1 .7-2 .6-1.2 1.7-2.4a95 95 0 0 0 8.1-10.1 34 34 0 0 0 4.1-8.5 12 12 0 0 0 .3-6q-.2-1.3-.8-2.4t-1.8-1.8q-1-.8-3-.5a12 12 0 0 0-8.5 4.5q-1.2 1.5-1.8 3.1a7 7 0 0 0-.5 2.5q0 .8.4 1.4l.8.7 1 .2h1l.6-.3q.8-.2 1.4-1l-.4-.2-.3-.6-.1-.7q0-1.3.3-2.7.5-1.4 1.1-2.3l1.5-1.7q.8-.7 1.4-.7a3 3 0 0 1 2.3.6q1 .9 1.2 3.3.3 2.8-.5 5.5a23 23 0 0 1-4.3 9l-2.7 3.2-4.5 5-1.6 2.5-1.2 2.7.5.6.7 1.7q.6 1.3 1.5 1.4t1.6-.4q.3-.5 1.2-.8 1-.5 2-.6a21 21 0 0 1 8.3-.3q1.2.3 1.4 1a8 8 0 0 0 .8-3.2zm1 0v1.8l-.2.8-.6 1.8-1.2 2.5-.7-2.7-.6-.2q-1-.3-2.2-.3a35 35 0 0 0-5.7.6l-1.8.5-.8.5-.1.1q-1 .9-2.4.7-1.7-.3-2.3-2v-.1l-.3-.8-.6-1-.6-.5.3-.7q.5-1.6 1.2-2.8.7-1.3 1.7-2.5l2-2.5 2.5-2.7 2.7-3.2q1.3-1.8 2.4-4 1.2-2.2 1.8-4.6t.4-5.2q-.1-2.2-.8-2.5a2 2 0 0 0-1.6-.4q-.2-.1-.9.5l-1.3 1.4-1 2.1q-.3 1.1-.2 2.4v.4h.1v.2l1.5.6-1 1q-.9.9-1.8 1.3l-1 .2h-1q-.7 0-1.3-.2h-.1l-1.2-1q-.5-1-.6-2 0-1.1.5-2.8.6-1.5 1.7-3l.4-.4q1.5-1.8 3.6-3.2a13 13 0 0 1 5.4-1.7q2.3-.3 3.8.7 1.4.7 2 2.2.7 1.2 1 2.6l.2 2q.1 2.2-.5 4.4t-1.7 4.5-2.5 4.4a63 63 0 0 1-8.2 10.1q-.9 1-1.3 1.7l.6-.3q2.1-.8 4.7-1l2.9-.3q1.2 0 2.2.2 1 0 2 .7v.1l.2.2v.2zm-22.4 2.5-.2-1q-.4-.3-1.4-.5l-2-.1-2.9.1a16 16 0 0 0-7.3 2.6q.2-1 .7-2.1.6-1.2 1.8-2.4a95 95 0 0 0 8-10 33 33 0 0 0 4.1-8.6 12 12 0 0 0 .3-6q-.2-1.2-.8-2.4-.6-1-1.7-1.8-1.2-.7-3.1-.5a12 12 0 0 0-8.4 4.5q-1.3 1.6-1.9 3.1a7 7 0 0 0-.5 2.5q0 .8.4 1.4l.9.7 1 .2h.9l.7-.2 1.4-1-.5-.3-.3-.6v-.6q-.2-1.5.2-2.8t1.1-2.3l1.5-1.7q.8-.7 1.4-.7a3 3 0 0 1 2.4.7q.9.8 1.2 3.2.1 3-.5 5.5-.7 2.6-1.8 4.8-1.2 2.3-2.6 4.1-1.4 2-2.7 3.3l-4.5 5.1-1.6 2.4-1.2 2.7.5.6.8 1.7q.5 1.4 1.4 1.4 1 .2 1.6-.4.3-.5 1.2-.8l2-.6a21 21 0 0 1 8.4-.3q1.1.3 1.3 1a8 8 0 0 0 .8-3.1zm1-.1v1.8q0 .5-.2.8 0 .9-.6 1.8l-1.2 2.6-.7-2.8-.5-.2-2.3-.3a35 35 0 0 0-5.7.6l-1.8.5-.8.5-.1.1q-1 1-2.4.7-1.8-.3-2.3-2v-.1l-.3-.8-.6-1-.6-.5.3-.7q.5-1.5 1.2-2.8t1.7-2.5l2-2.5 2.6-2.7 2.6-3.2q1.4-1.8 2.5-4 1-2.1 1.7-4.5.6-2.5.5-5.3-.2-2.2-.9-2.5a2 2 0 0 0-1.6-.4l-.9.5q-.6.5-1.2 1.4t-1 2.1-.3 2.4v.4h.1v.2h.1l1.5.6-1.1 1.1q-.8.9-1.8 1.2l-1 .2-.9.1q-.8 0-1.4-.3h-.1l-1.2-1q-.5-.8-.6-2t.6-2.8q.5-1.5 1.7-3l.3-.4q1.5-1.8 3.6-3.1a13 13 0 0 1 5.5-1.8q2.1-.2 3.7.7 1.3.8 2.1 2.2.7 1.2.9 2.6l.2 2q.2 2.2-.5 4.5t-1.7 4.4-2.5 4.4a62 62 0 0 1-8.2 10.2q-.9.8-1.3 1.7l.7-.3q2-.9 4.6-1.2l3-.1 2.2.1q1 .1 1.8.7l.1.1.2.2v.3q.3.5.3 1"/>
  <path fill="#000" d="m111.8 115 3-.4 2.4-.1h.7l1 .1q.5.3.7.7.3.6.2 1v.9a4 4 0 0 1-.8 1.6q-.7.7-1.6.7l-3.2.4-4 .5-2.5.4-5 1.4-1 .5-.3-1.2-.1-1v-.8l.1-.7.5-1.3q.4-.8 1-1.1l1.2-.5 1.7-.3 2.3-.4 2.5-.3zm-1 1a66 66 0 0 0-7.4 1.4l-.6.7-.4 1-.1 1.5v.7l2.6-.9a49 49 0 0 1 9.1-1.5l3.4-.4q.6 0 .9-.3l.4-1.2q.3-.9 0-1.2 0-.3-.7-.3a49 49 0 0 0-7.3.6M97.6 98.2q.8 0 1.2.2l.9.6.8.8q.5.5.5 1.2l-2.8 21.8-.5 2.9a29 29 0 0 0-.2 5.9q.2 1.5.7 2.6l.3.7-.6.5-1.2.5a8 8 0 0 1-2.5.6 3 3 0 0 1-1.8-.3q-.8-.4-1.1-1.2v-.1q-.3-.7-.3-1.6t.2-1.8l1.2-6.8a149 149 0 0 0 1.8-16.5v-1.4l-.8-.6-1.4-1.1-.3-.4.1-.5.1-.4.2-.2.5-.7 3.1-3.6q.8-1 2-1.1m.2 1q-.6 0-1.4.8a19 19 0 0 0-3 3.4l-.6 1a8 8 0 0 0 2.5 1.8L95 111a149 149 0 0 1-3 22.4q0 .8.2 1.2.3.6.7.8.5.3 1.2.2t1.2-.2l2-.7q-.5-1.4-.8-3a26 26 0 0 1 .2-6l.5-3L100 101q0-.3-.3-.6l-.6-.6-.8-.5zm-11.7 34.1-.2-1q-.5-.3-1.4-.5l-2.1-.1-2.8.1a16 16 0 0 0-7.3 2.6q.2-1 .7-2.1.6-1.2 1.7-2.4a95 95 0 0 0 8.1-10 34 34 0 0 0 4.1-8.6 12 12 0 0 0 .3-6q-.2-1.2-.8-2.3-.6-1.2-1.8-1.9-1.1-.7-3-.5a12 12 0 0 0-8.5 4.5q-1.2 1.5-1.8 3.2a7 7 0 0 0-.5 2.4q0 .8.4 1.4l.8.7 1 .2h1l.6-.2q.8-.3 1.4-1l-.4-.3-.3-.5-.1-.7q0-1.5.3-2.8l1-2.3q.7-1 1.6-1.7.8-.7 1.4-.7a3 3 0 0 1 2.3.7q1 .8 1.2 3.2.3 3-.5 5.5-.6 2.5-1.8 4.8-1.1 2.3-2.5 4.2l-2.7 3.2-4.5 5.1-1.6 2.4q-.7 1.2-1.2 2.7l.5.6.7 1.7q.4 1.4 1.5 1.4 1 .2 1.6-.4.3-.5 1.2-.8l2-.6a21 21 0 0 1 8.3-.3q1.2.3 1.4 1a8 8 0 0 0 .7-3.1zm1-.1v1.8l-.2.8-.6 1.8-1.2 2.6-.7-2.8-.6-.2-2.2-.2a35 35 0 0 0-5.7.5l-1.8.5q-.8.3-.8.5l-.1.2q-1 .8-2.4.6-1.8-.3-2.3-2v-.1l-.3-.8-.6-1-.6-.5.2-.6 1.3-2.9 1.6-2.5 2.1-2.4 2.5-2.8 2.7-3.1q1.4-1.8 2.4-4 1.1-2.2 1.8-4.6.7-2.5.4-5.2-.2-2.3-.8-2.5a2 2 0 0 0-1.6-.5q-.3 0-.9.5t-1.3 1.4l-1 2.2q-.3 1-.2 2.3v.5h.1v.1l1.5.6-1 1.1q-.9.9-1.8 1.2l-1 .2-1 .1q-.7 0-1.3-.3h-.1q-.8-.3-1.2-1-.6-.8-.6-2t.5-2.8 1.7-3l.4-.4q1.5-1.8 3.6-3.1a13 13 0 0 1 5.4-1.8q2.2-.2 3.8.7 1.4.8 2 2.2.7 1.2 1 2.6l.2 2q0 2.3-.5 4.5t-1.7 4.4-2.5 4.4a62 62 0 0 1-8.3 10.2l-1.3 1.7.7-.3q2.1-.9 4.7-1.2l2.9-.1 2.2.1q1.1.1 1.9.8h.1l.2.2v.3z"/>
</svg>