<svg xmlns="http://www.w3.org/2000/svg" viewBox="0 0 512 512"

  preserveAspectRatio="xMidYMid meet" fill="none">
<title>Compass Detroit logo</title>
<desc>Compass Detroit conference, bringing together developers from across the state to learn, share, and grow.</desc>

 xmlns="http://www.w3.org/2000/svg" width="512" height="512" fill="none" viewBox="0 0 512 512"><path fill="#ffa706" d="M152.717 241.277c-.523 13.085-10.282 20.936-25.966 20.936-18.908 0-29.8-11.253-29.8-30.706s10.283-29.746 27.186-29.746c8.975 0 14.464 2.53 17.95 8.287v-7.153h9.933v21.11h-10.718c-.261-4.012-.871-6.019-2.526-8.374-2.44-3.663-6.71-5.67-11.938-5.67-11.065 0-17.078 7.938-17.078 22.419 0 14.48 6.013 21.633 16.904 21.633 8.103 0 12.634-4.187 13.767-12.736zM208.22 211.095c4.705 5.234 6.883 11.776 6.883 20.412 0 19.104-11.414 30.706-30.322 30.706-9.846 0-17.862-3.141-23.351-9.073-4.967-5.408-7.232-12.125-7.232-21.633 0-18.406 11.588-29.833 30.235-29.833q15.422 0 23.787 9.421m-38.077 6.368c-2.004 3.489-3.137 8.723-3.137 14.655 0 14.044 6.274 21.895 17.601 21.895 5.228 0 9.933-2.007 12.896-5.583 3.224-3.838 4.705-8.985 4.705-16.399 0-6.281-1.046-11.079-3.137-14.655-2.788-4.624-8.365-7.502-14.464-7.502s-11.676 2.878-14.464 7.589M233.401 210.833v42.307h6.971v7.938h-24.049v-7.938h7.145v-42.307h-7.145v-7.938h26.402l9.41 29.833c2.178 6.979 2.875 9.77 4.095 16.487.523-2.791.872-4.798 1.133-5.757.261-.96 1.481-5.06 3.398-11.253l9.062-29.31h26.314v7.938h-7.232v42.307h7.232v7.938h-25.53v-7.938h6.884v-42.307l-16.73 50.245H249.87zM319.314 253.14h9.236v7.938h-29.015v-7.938h7.493v-42.307h-7.493v-7.938h31.978c12.372 0 19.779 6.717 19.779 17.97 0 6.281-2.527 11.689-6.797 14.655-3.485 2.442-7.493 3.315-14.464 3.315h-10.717zm7.406-22.244c4.27 0 6.535-.523 8.452-2.093 2.091-1.657 3.311-4.623 3.311-7.938 0-6.717-3.834-10.032-11.85-10.032h-7.319v20.063zM404.094 253.14h5.054v7.938h-25.617v-7.938h7.58l-3.746-9.857H363.49l-3.833 9.857h7.667v7.938h-24.136v-7.938h5.054l20.825-50.245h14.464zm-19.866-17.62-8.8-22.855-8.888 22.855zM422.74 241.277c1.22 9.072 4.705 12.736 12.199 12.736 6.709 0 10.63-2.879 10.63-7.851 0-4.013-1.83-5.845-8.452-8.113l-10.543-3.75c-10.717-3.751-14.29-7.677-14.29-15.615 0-10.642 7.407-17.01 19.867-17.01 7.406 0 12.024 2.181 14.551 6.717v-5.496h9.933v18.842h-9.933c0-7.851-3.921-11.863-11.676-11.863-6.186 0-9.846 2.791-9.846 7.414 0 3.49 1.917 5.234 8.452 7.502l10.282 3.577c6.447 2.181 9.933 4.274 11.937 7.24 1.742 2.442 2.614 5.583 2.614 9.334 0 10.904-7.581 17.272-20.476 17.272-8.017 0-12.896-2.356-15.249-7.328v6.193h-9.933v-19.801zM473.277 241.277c1.22 9.072 4.705 12.736 12.199 12.736 6.709 0 10.63-2.879 10.63-7.851 0-4.013-1.83-5.845-8.452-8.113l-10.543-3.75c-10.717-3.751-14.29-7.677-14.29-15.615 0-10.642 7.407-17.01 19.866-17.01 7.407 0 12.025 2.181 14.552 6.717v-5.496h9.933v18.842h-9.933c0-7.851-3.921-11.863-11.676-11.863-6.187 0-9.846 2.791-9.846 7.414 0 3.49 1.917 5.234 8.452 7.502l10.281 3.577c6.448 2.181 9.933 4.274 11.938 7.24 1.742 2.442 2.614 5.583 2.614 9.334 0 10.904-7.581 17.272-20.477 17.272-8.016 0-12.895-2.356-15.248-7.328v6.193h-9.933v-19.801z"/><path fill="#00c605" d="M77.173 226.727c-.82-1.239-3.172-1.588-4.915-2.041a5.11 5.11 0 0 1-4.304-4.187 34 34 0 0 0-1.655-3.821 3.2 3.2 0 0 1 0-2.129c.853-2.076 1.951-4.047 2.823-6.123a2.08 2.08 0 0 0-.331-1.745c-1.5-1.744-3.19-3.175-4.706-4.815a1.58 1.58 0 0 0-2.195-.349h-.018c-1.742.96-3.746 1.745-5.576 2.722a2.59 2.59 0 0 1-2.701 0c-1.743-.873-3.608-1.448-5.35-2.303a3.56 3.56 0 0 1-1.638-1.64c-.837-1.937-1.534-3.96-2.179-5.984a1.62 1.62 0 0 0-1.847-1.291h-6.57a2.37 2.37 0 0 0-1.742 1.169c-.854 2.006-1.481 4.117-2.283 6.141a2.86 2.86 0 0 1-1.203 1.396c-2.317 1.064-4.705 2.808-6.97 2.756-2.266-.052-4.636-1.902-6.97-2.966l-.14-.105a1.36 1.36 0 0 0-1.934.14c-.035.052-.088.105-.123.157-1.568 1.623-3.171 3.071-4.74 4.815a2.24 2.24 0 0 0-.348 1.954c.854 2.076 1.952 4.048 2.84 6.124.21.645.21 1.326 0 1.971-.749 1.919-1.55 3.908-2.44 5.653a3.32 3.32 0 0 1-1.498 1.553c-1.952.82-3.973 1.535-5.995 2.18a1.743 1.743 0 0 0-1.446 1.972c0 2.128.087 4.257 0 6.385a1.744 1.744 0 0 0 1.446 1.884c1.97.628 3.939 1.309 5.82 2.111.75.332 1.36.907 1.743 1.623a53 53 0 0 1 2.318 5.53 3.48 3.48 0 0 1 0 2.303c-.871 2.059-1.969 3.96-2.788 5.984a2.28 2.28 0 0 0 .348 1.972c1.447 1.622 3.12 3.07 4.584 4.675.575.733 1.62.873 2.37.349 1.882-.994 3.834-1.867 5.75-2.774l1.098-.471a23 23 0 0 0 4.566 2.006 5.93 5.93 0 0 1 4.757 4.955c.436 1.605.82 3.716 1.987 4.519s3.276.279 4.984.296c3.904 0 4.078 0 5.228-3.733a8.71 8.71 0 0 1 5.89-6.455 8.42 8.42 0 0 1 8.034.296c3.868 2.181 3.99 1.972 7.127-1.151 3.485-3.385 3.573-3.489 1.29-7.694a8.15 8.15 0 0 1-.227-7.502 8.93 8.93 0 0 1 6.866-6.176c3.486-.942 3.486-1.134 3.486-4.658-.157-1.867.365-4.17-.523-5.478m-37.955 27.914c-13.366-.105-24.206-10.887-24.397-24.268 0-13.486 10.926-24.424 24.414-24.407 13.471 0 24.38 10.939 24.38 24.407-.157 13.399-11.014 24.198-24.397 24.285z"/><path fill="#ee7d33" d="M53.56 217.533c-6.326 2.25-12.652 4.484-18.978 6.752l3.033 2.808a5 5 0 0 1 1.533-.226c2.475-.088 4.548 1.849 4.653 4.326 0 .471-.087.942-.244 1.379l3.05 2.808a5028 5028 0 0 0 7.18-17.184c.087-.227.156-.454.296-.803zM40.455 235.328a5.6 5.6 0 0 1-1.324.174 4.53 4.53 0 0 1-4.688-4.291c0-.419.07-.855.192-1.256l-3.05-2.809c-2.16 5.146-4.322 10.31-6.465 15.457l-.994 2.408.54-.157 18.856-6.717zM320.848 284.683c-8.47 3.018-16.956 6.002-25.426 9.055l4.061 3.768a6.3 6.3 0 0 1 2.056-.296 6.054 6.054 0 0 1 6.239 5.792c0 .628-.105 1.256-.331 1.849l4.095 3.768q4.836-11.514 9.619-23.029c.122-.296.209-.61.401-1.081l-.697.192z"/><path fill="#fff" d="M343.798 282.729c8.696 0 13.523 4.641 13.523 12.963 0 4.292-1.429 7.781-4.06 9.944-2.51 2.059-5.489 2.896-10.351 2.896h-12.251v-3.524h3.276v-18.754h-3.276v-3.525zm-4.409 22.279h2.545c3.624 0 5.646-.61 7.232-2.285 1.585-1.623 2.439-4.135 2.439-7.188s-.854-5.53-2.544-7.188c-1.516-1.465-3.398-2.093-6.378-2.093h-3.276v18.754zM372.081 293.668v-3.053h3.712v9.665h-3.712v-3.053h-4.217v7.781h10.317v-4.728h4.409v8.235h-23.456v-3.524h3.276v-18.755h-3.276v-3.524h23.456v7.886h-4.409v-4.362h-10.317v7.432zM400.33 305.008h3.781v3.524h-12.982v-3.524h3.746v-18.754h-5.106v5.373h-4.409v-8.898h24.502v8.898h-4.409v-5.373h-5.141v18.754zM420.963 305.008h3.206v3.524h-12.024v-3.524h3.363v-18.754h-3.363v-3.525h14.098c3.625 0 5.873.733 7.302 2.408.958 1.169 1.516 2.669 1.516 4.362 0 2.093-.819 4.03-2.161 5.146-.924.803-2.004 1.204-4.026 1.431v.157c2.632.157 3.782 1.082 4.566 3.629l1.708 5.146h2.631v3.524h-7.144l-2.632-7.972c-.662-2.042-1.708-2.792-3.816-2.792h-3.207v7.24zm3.206-10.764c3.433 0 5.49-1.553 5.49-4.135s-1.586-3.873-4.636-3.873h-4.06v8.008zM462.682 286.358c2.091 2.321 3.05 5.217 3.05 9.055 0 8.479-5.054 13.608-13.454 13.608-4.356 0-7.911-1.396-10.351-4.03-2.196-2.408-3.207-5.374-3.207-9.596 0-8.164 5.141-13.224 13.401-13.224 4.566 0 8.069 1.396 10.544 4.17zm-16.869 2.827c-.889 1.552-1.394 3.873-1.394 6.507 0 6.228 2.788 9.7 7.807 9.7 2.318 0 4.409-.89 5.716-2.477 1.429-1.71 2.091-3.978 2.091-7.275 0-2.792-.47-4.92-1.394-6.49-1.237-2.059-3.712-3.333-6.413-3.333s-5.176 1.274-6.413 3.368M471.779 286.236h-3.399v-3.524h12.286v3.524h-3.433v18.755h3.433v3.524H468.38v-3.524h3.399zM498.005 305.008h3.782v3.524h-12.983v-3.524h3.747v-18.754h-5.106v5.373h-4.409v-8.898h24.502v8.898h-4.409v-5.373h-5.141v18.754z"/></svg>