<svg fill="none" height="65" viewBox="0 0 65 65" width="65" xmlns="http://www.w3.org/2000/svg"><path d="m32.5 50.375c-7.9219 0-14.2188-6.2969-14.2188-14.2188v-9.75h2.0313v9.75c0 6.7032 5.4844 12.1875 12.1875 12.1875s12.1875-5.4843 12.1875-12.1875v-9.75h2.0313v9.75c0 7.9219-6.2969 14.2188-14.2188 14.2188z" fill="#607d95"/><path d="m18.2812 26.4062h2.0313v4.0626h-2.0313zm26.4063 0h2.0313v4.0626h-2.0313z" fill="#4b6c85"/><path d="m34.5312 48.75v6.0938h-4.0624v-6.0938m-11.1719 10.1562v-2.0312c0-1.2188.8125-2.0312 2.0312-2.0312h22.3438c1.2187 0 2.0312.8124 2.0312 2.0312v2.0312z" fill="#607d95"/><path d="m25.3906 54.8438h-4.0625c-1.2187 0-2.0312.8124-2.0312 2.0312v2.0312h4.0625v-2.0312c0-1.2188.8125-2.0312 2.0312-2.0312z" fill="#4b6c85"/><path d="m22.3438 28.4375h-4.0626c-1.2187 0-2.0312-.8125-2.0312-2.0313 0-1.2187.8125-2.0312 2.0312-2.0312h4.0626zm24.375 0h-4.0626v-4.0625h4.0626c1.2187 0 2.0312.8125 2.0312 2.0312 0 1.2188-.8125 2.0313-2.0312 2.0313z" fill="#607d95"/><path d="m32.5 46.7188c-5.6875 0-10.1562-4.4688-10.1562-10.1563v-22.3437c0-5.68755 4.4687-10.1563 10.1562-10.1563s10.1562 4.46875 10.1562 10.1563v22.3437c0 5.6875-4.4687 10.1563-10.1562 10.1563z" fill="#eef2fa"/><path d="m22.3438 28.4375v8.125c0 5.6875 4.4687 10.1563 10.1562 10.1563s10.1562-4.4688 10.1562-10.1563v-8.125z" fill="#607d95"/><path d="m30.4688 31.4844h12.1874v-3.0469h-20.3124v8.125c0 .6094 0 1.2187.2031 1.8281 0 .2031 0 .4063.2031.6094 0 .4063.2031.8125.4062 1.2187 0 .2032.2032.4063.2032.6094l.6094 1.2188c0 .2031.2031.2031.2031.4062.4062.4063.6093.8125 1.0156 1.2188l.6094.6093c.2031.2032.4062.4063.8125.6094.2031.2032.4062.4063.6093.4063.2032.2031.6094.4062.8126.4062 2.0312 1.0157 4.2656 1.4219 6.9062.8125 4.6719-1.2187 7.9219-5.4844 7.9219-10.3594v-2.4374c0 5.6875-4.4688 10.1562-10.1563 10.1562h-.2031c-3.25 0-5.6875-2.8437-5.6875-5.8906v-2.2344c-.4063-2.4375 1.4219-4.2656 3.6563-4.2656z" fill="#4b6c85"/><path d="m30.4688 25.3906c-2.2344 0-4.0626-1.8281-4.0626-4.0625v-7.1093c0-4.87505 3.4532-8.93755 8.125-9.95318-1.2187-.20312-2.6406-.20312-4.0624 0-4.8751 1.01563-8.125 5.48438-8.125 10.35938v13.8125h20.3124v-3.0469z" fill="#d5e5f2"/><g fill="#b0c4da"><path d="m28.4375 9.14062c.5609 0 1.0156-.45471 1.0156-1.01562s-.4547-1.01562-1.0156-1.01562-1.0156.45471-1.0156 1.01562.4547 1.01562 1.0156 1.01562z"/><path d="m32.5 9.14062c.5609 0 1.0156-.45471 1.0156-1.01562s-.4547-1.01562-1.0156-1.01562-1.0156.45471-1.0156 1.01562.4547 1.01562 1.0156 1.01562z"/><path d="m36.5625 9.14062c.5609 0 1.0156-.45471 1.0156-1.01562s-.4547-1.01562-1.0156-1.01562-1.0156.45471-1.0156 1.01562.4547 1.01562 1.0156 1.01562z"/><path d="m26.4062 13.2031c.561 0 1.0157-.4547 1.0157-1.0156s-.4547-1.0156-1.0157-1.0156c-.5609 0-1.0156.4547-1.0156 1.0156s.4547 1.0156 1.0156 1.0156z"/><path d="m30.4688 13.2031c.5609 0 1.0156-.4547 1.0156-1.0156s-.4547-1.0156-1.0156-1.0156c-.561 0-1.0157.4547-1.0157 1.0156s.4547 1.0156 1.0157 1.0156z"/><path d="m34.5312 13.2031c.561 0 1.0157-.4547 1.0157-1.0156s-.4547-1.0156-1.0157-1.0156c-.5609 0-1.0156.4547-1.0156 1.0156s.4547 1.0156 1.0156 1.0156z"/><path d="m30.4688 13.2031c.5609 0 1.0156-.4547 1.0156-1.0156s-.4547-1.0156-1.0156-1.0156c-.561 0-1.0157.4547-1.0157 1.0156s.4547 1.0156 1.0157 1.0156z"/><path d="m34.5312 13.2031c.561 0 1.0157-.4547 1.0157-1.0156s-.4547-1.0156-1.0157-1.0156c-.5609 0-1.0156.4547-1.0156 1.0156s.4547 1.0156 1.0156 1.0156z"/><path d="m38.5938 13.2031c.5609 0 1.0156-.4547 1.0156-1.0156s-.4547-1.0156-1.0156-1.0156c-.561 0-1.0157.4547-1.0157 1.0156s.4547 1.0156 1.0157 1.0156z"/><path d="m31.4844 17.2656c.5609 0 1.0156-.4547 1.0156-1.0156s-.4547-1.0156-1.0156-1.0156-1.0156.4547-1.0156 1.0156.4547 1.0156 1.0156 1.0156z"/><path d="m35.5469 17.2656c.5609 0 1.0156-.4547 1.0156-1.0156s-.4547-1.0156-1.0156-1.0156-1.0157.4547-1.0157 1.0156.4548 1.0156 1.0157 1.0156z"/><path d="m39.6094 17.2656c.5609 0 1.0156-.4547 1.0156-1.0156s-.4547-1.0156-1.0156-1.0156-1.0156.4547-1.0156 1.0156.4547 1.0156 1.0156 1.0156z"/><path d="m23.3594 17.2656c.5609 0 1.0156-.4547 1.0156-1.0156s-.4547-1.0156-1.0156-1.0156-1.0156.4547-1.0156 1.0156.4547 1.0156 1.0156 1.0156z"/><path d="m27.4219 17.2656c.5609 0 1.0156-.4547 1.0156-1.0156s-.4547-1.0156-1.0156-1.0156-1.0157.4547-1.0157 1.0156.4548 1.0156 1.0157 1.0156z"/><path d="m31.4844 17.2656c.5609 0 1.0156-.4547 1.0156-1.0156s-.4547-1.0156-1.0156-1.0156-1.0156.4547-1.0156 1.0156.4547 1.0156 1.0156 1.0156z"/><path d="m33.5156 21.3281c.5609 0 1.0156-.4547 1.0156-1.0156s-.4547-1.0156-1.0156-1.0156-1.0156.4547-1.0156 1.0156.4547 1.0156 1.0156 1.0156z"/><path d="m37.5781 21.3281c.5609 0 1.0157-.4547 1.0157-1.0156s-.4548-1.0156-1.0157-1.0156-1.0156.4547-1.0156 1.0156.4547 1.0156 1.0156 1.0156z"/><path d="m41.6406 21.3281c.5609 0 1.0156-.4547 1.0156-1.0156s-.4547-1.0156-1.0156-1.0156-1.0156.4547-1.0156 1.0156.4547 1.0156 1.0156 1.0156z"/><path d="m25.3906 21.3281c.5609 0 1.0156-.4547 1.0156-1.0156s-.4547-1.0156-1.0156-1.0156-1.0156.4547-1.0156 1.0156.4547 1.0156 1.0156 1.0156z"/><path d="m29.4531 21.3281c.5609 0 1.0157-.4547 1.0157-1.0156s-.4548-1.0156-1.0157-1.0156-1.0156.4547-1.0156 1.0156.4547 1.0156 1.0156 1.0156z"/><path d="m33.5156 21.3281c.5609 0 1.0156-.4547 1.0156-1.0156s-.4547-1.0156-1.0156-1.0156-1.0156.4547-1.0156 1.0156.4547 1.0156 1.0156 1.0156z"/><path d="m31.4844 25.3906c.5609 0 1.0156-.4547 1.0156-1.0156s-.4547-1.0156-1.0156-1.0156-1.0156.4547-1.0156 1.0156.4547 1.0156 1.0156 1.0156z"/><path d="m35.5469 25.3906c.5609 0 1.0156-.4547 1.0156-1.0156s-.4547-1.0156-1.0156-1.0156-1.0157.4547-1.0157 1.0156.4548 1.0156 1.0157 1.0156z"/><path d="m39.6094 25.3906c.5609 0 1.0156-.4547 1.0156-1.0156s-.4547-1.0156-1.0156-1.0156-1.0156.4547-1.0156 1.0156.4547 1.0156 1.0156 1.0156z"/><path d="m23.3594 25.3906c.5609 0 1.0156-.4547 1.0156-1.0156s-.4547-1.0156-1.0156-1.0156-1.0156.4547-1.0156 1.0156.4547 1.0156 1.0156 1.0156z"/><path d="m27.4219 25.3906c.5609 0 1.0156-.4547 1.0156-1.0156s-.4547-1.0156-1.0156-1.0156-1.0157.4547-1.0157 1.0156.4548 1.0156 1.0157 1.0156z"/><path d="m31.4844 25.3906c.5609 0 1.0156-.4547 1.0156-1.0156s-.4547-1.0156-1.0156-1.0156-1.0156.4547-1.0156 1.0156.4547 1.0156 1.0156 1.0156z"/></g><path d="m26 12.1875c0-.4063.4062-.8125.8125-1.0156h-.2031c-.6094 0-1.0156.4062-1.0156 1.0156s.4062 1.0156 1.0156 1.0156h.2031c-.6094-.2031-.8125-.6093-.8125-1.0156zm4.0625 0c0-.4063.4063-.8125.8125-1.0156h-.2031c-.6094 0-1.0156.4062-1.0156 1.0156s.4062 1.0156 1.0156 1.0156h.2031c-.6094-.2031-.8125-.6093-.8125-1.0156zm4.0625 0c0-.4063.4063-.8125.8125-1.0156h-.2031c-.6094 0-1.0156.4062-1.0156 1.0156s.4062 1.0156 1.0156 1.0156h.2031c-.6094-.2031-.8125-.6093-.8125-1.0156zm4.0625 0c0-.4063.4063-.8125.8125-1.0156h-.2031c-.6094 0-1.0156.4062-1.0156 1.0156s.4062 1.0156 1.0156 1.0156h.2031c-.6094-.2031-.8125-.6093-.8125-1.0156zm-7.1094 4.0625c0-.4062.4063-.8125.8125-1.0156h-.2031c-.8125 0-1.2187.4062-1.2187 1.0156s.4062 1.0156 1.0156 1.0156h.2031c-.4062-.2031-.6094-.6094-.6094-1.0156zm4.0625 0c0-.4062.4063-.8125.8125-1.0156h-.2031c-.8125 0-1.2188.4062-1.2188 1.0156s.4063 1.0156 1.0157 1.0156h.2031c-.4062-.2031-.6094-.6094-.6094-1.0156zm4.0625 0c0-.4062.4063-.8125.8125-1.0156h-.2031c-.8125 0-1.2187.4062-1.2187 1.0156s.4062 1.0156 1.0156 1.0156h.2031c-.4063-.2031-.6094-.6094-.6094-1.0156zm-12.1875 0c0-.4062.4063-.8125.8125-1.0156h-.2031c-.8125 0-1.2188.4062-1.2188 1.0156s.4063 1.0156 1.0157 1.0156h.2031c-.4062-.2031-.6094-.6094-.6094-1.0156zm-4.0625 0c0-.4062.4063-.8125.8125-1.0156h-.2031c-.8125 0-1.2187.4062-1.2187 1.0156s.4062 1.0156 1.0156 1.0156h.2031c-.4062-.2031-.6094-.6094-.6094-1.0156zm2.0313 4.0625c0-.4063.4062-.8125.8125-1.0156h-.2031c-.8125 0-1.2188.4062-1.2188 1.0156s.4062 1.0156 1.0156 1.0156h.2032c-.4063-.2031-.6094-.6093-.6094-1.0156zm4.0625 0c0-.4063.4062-.8125.8125-1.0156h-.2031c-.8125 0-1.2188.4062-1.2188 1.0156s.4063 1.0156 1.0156 1.0156h.2032c-.4063-.2031-.6094-.6093-.6094-1.0156zm4.0625 0c0-.4063.4062-.8125.8125-1.0156h-.2031c-.8125 0-1.2188.4062-1.2188 1.0156s.4062 1.0156 1.0156 1.0156h.2032c-.4063-.2031-.6094-.6093-.6094-1.0156zm4.0625 0c0-.4063.4062-.8125.8125-1.0156h-.2031c-.8125 0-1.2188.4062-1.2188 1.0156s.4063 1.0156 1.0156 1.0156h.2032c-.4063-.2031-.6094-.6093-.6094-1.0156zm4.0625 0c0-.4063.4062-.8125.8125-1.0156h-.2031c-.8126 0-1.2188.4062-1.2188 1.0156s.4062 1.0156 1.0156 1.0156h.2032c-.4063-.2031-.6094-.6093-.6094-1.0156zm-2.0313 4.0625c0-.4062.4063-.8125.8125-1.0156h-.2031c-.6094 0-1.0156.4062-1.0156 1.0156s.4062 1.0156 1.0156 1.0156h.2031c-.6093-.2031-.8125-.6094-.8125-1.0156zm-4.0625 0c0-.4062.4063-.8125.8125-1.0156h-.2031c-.6094 0-1.0156.4062-1.0156 1.0156s.4062 1.0156 1.0156 1.0156h.2031c-.6093-.2031-.8125-.6094-.8125-1.0156zm-4.0625 0c0-.4062.4063-.8125.8125-1.0156h-.2031c-.6094 0-1.0156.4062-1.0156 1.0156s.4062 1.0156 1.0156 1.0156h.2031c-.6094-.2031-.8125-.6094-.8125-1.0156zm-4.0625 0c0-.4062.4063-.8125.8125-1.0156h-.2031c-.6094 0-1.0156.4062-1.0156 1.0156s.4062 1.0156 1.0156 1.0156h.2031c-.6094-.2031-.8125-.6094-.8125-1.0156zm-4.0625 0c0-.4062.4063-.8125.8125-1.0156h-.2031c-.6094 0-1.0156.4062-1.0156 1.0156s.4062 1.0156 1.0156 1.0156h.2031c-.6094-.2031-.8125-.6094-.8125-1.0156zm5.0782-16.25c0-.40625.4062-.8125.8124-1.01562h-.2031c-.6093 0-1.0156.40624-1.0156 1.01562s.4063 1.01562 1.0156 1.01562h.2031c-.6093-.20312-.8124-.60937-.8124-1.01562zm4.0625 0c0-.40625.4062-.8125.8125-1.01562h-.2032c-.6093 0-1.0156.40624-1.0156 1.01562s.4063 1.01562 1.0156 1.01562h.2032c-.6094-.20312-.8125-.60937-.8125-1.01562zm4.0624 0c0-.40625.4063-.8125.8126-1.01562h-.2032c-.6093 0-1.0156.40624-1.0156 1.01562s.4063 1.01562 1.0156 1.01562h.2032c-.6094-.20312-.8126-.60937-.8126-1.01562z" fill="#99b5ce"/></svg>