<svg xmlns="http://www.w3.org/2000/svg" viewBox="0 0 512 512"
  fill="none"
  preserveAspectRatio="xMidYMid meet" fill="none">
<title>Michigan DevFest 2025 logo</title>
<desc>Michigan DevFest is the largest developer conference in Michigan, bringing together developers from across the state to learn, share, and grow.</desc>
  <g clip-path="url(#a)">
    <path fill="#fec405" fill-rule="evenodd" d="M85.8 217.2C104.3 139 173 80.8 255 80.8q21 0 40.6 5l-1.7 5q-18.7-4.7-39-4.7c-79.4 0-146 56.3-164 132zm248-117a179 179 0 0 1 95.2 159c0 98.4-78 178.4-174 178.4-95.5 0-173.1-79-174-176.6l5.1 1.3c1.6 94 76.7 170 168.9 170 93.2 0 168.8-77.6 168.8-173.1a174 174 0 0 0-91-153.7zM116 345.4a169 169 0 0 1-23.1-85.7C92.9 167.5 166 92.6 256 92.6s163.1 74.9 163.1 167.1c0 92.3-73 167.2-163.1 167.2-45.7 0-87-19.3-116.6-50.3l6.8-7.4-1.5-2.2A151 151 0 0 0 256 416.4c84.3 0 152.8-70.2 152.8-156.7S340.3 103.1 256 103.1s-152.8 70.2-152.8 156.6c0 29.5 8 57 21.8 80.6zm2.5-143.6A148 148 0 0 1 255 108.5c24.8 0 48 6.2 68.6 17.2l-4.6 7.9a136 136 0 0 0-64-16 139 139 0 0 0-128.7 88.6zM359.9 153c26.6 27.3 43 65 43 106.5a152 152 0 0 1-53.3 116.1l-5.4-7.2A143 143 0 0 0 394 259.5a143 143 0 0 0-40.3-100zm-26.3 234.5a145 145 0 0 1-78.5 23c-81.6 0-147.8-67.7-147.8-151l.2-8.4 9-.5-.3 8.9c0 78.3 62.2 142 139 142 26.7 0 51.8-7.9 73-21.3zm-74 7.2-4.3.1a134.4 134.4 0 0 1-133.2-135.4c0-74.7 59.7-135.3 133.2-135.3 55 0 102.1 33.8 122.5 82.1l-6.9 3.2a126 126 0 0 0-115.6-77.7 127 127 0 0 0-125.7 127.7 127 127 0 0 0 130.2 127.7zM385.9 233a135.5 135.5 0 0 1-78.7 151.2l-2.6-7.1a128 128 0 0 0 74-142.3zM255.8 378.5h-.7a118 118 0 0 1-117-118.9 119 119 0 0 1 76.1-111.5l1.6 4.5c-42.6 16.2-73 58-73 107 0 63 50.3 114.2 112.3 114.2h.7zM234 142.6q10.3-2 21-2a118 118 0 0 1 117.1 119c0 60.7-44.9 110.9-102.7 118l-1.2-4.6a113.6 113.6 0 0 0 99.2-113.4 113.3 113.3 0 0 0-132.2-112.4zm21.2 12c57 0 103.3 47 103.3 105s-46.3 105-103.3 105-103.4-47-103.4-105 46.3-105 103.4-105m0 4.8c-54.5 0-98.7 45-98.7 100.2A99.5 99.5 0 0 0 255.2 360c54.4 0 98.6-45 98.6-100.2a99.5 99.5 0 0 0-98.6-100.3m1.1 192.6s.5 1.2-1.2 1.4a92 92 0 0 1-91.3-92.8 93 93 0 0 1 47.2-81.2l5 9.2c-25 14-41.9 41-41.9 72a81.6 81.6 0 0 0 81 82.3h1zM228 172a90 90 0 0 1 27-4 92 92 0 0 1 91.3 92.6c0 33-17 62-42.5 78.4l-3.8-10a83 83 0 0 0 36-68.4 81.6 81.6 0 0 0-98.6-80.2l-5 .2zm44.5 161.5a74.6 74.6 0 0 1-90-73.3 75 75 0 0 1 53-72.1l2 3.4a71 71 0 0 0-51.4 68.7 71 71 0 0 0 70.2 71.3c38.7 0 70.2-32 70.2-71.3A71 71 0 0 0 262 189l-1-4a74.7 74.7 0 0 1 69.2 75 75 75 0 0 1-35.3 64.1z" clip-rule="evenodd"/>
    <path fill="#fff" d="M2.5 284.5v50H503v-69h-8.5v3.5h-6v27.5H481V269h-4.5v-3.5h-14v31h-3v-71a6 6 0 0 0-5-2.5c-2.8 0-4.2 1.7-4.5 2.5l-1.5 7.4L432 238v36h-3.5v-28.6l-7-1.8-11 2.9V200l-5-5v-8h-4.1v7s-15.4 1-20.9 9.5v29.4l-10 2.6-1.5 5.6-20 5.4V298h-5v-10.1l-6-10.4h-3.5v-12l-2 .5v-7.5h-12v7.5l-2-.5v23.6h-5.3v-9.6l-1.2-2v-12l-2-2-2 2v12l-2 2v9.6c-.7 1-2.2 2.6-2.5 1.4s-17.1-.5-25.5 0v6h-3.5v-6h-11v6h-7V261H254v-2.5l-3.5-2v4.5h-5v-4.5l-3.5 2v2.5h-2.5v20h-4l1-3.5h-5V274H224v-45.5l-2 3.5h-7.9l-.7-2.5-1.4 2.5h-5l-2.5-2.5v63.2l-2.5-.7v-14.5h-6V300h-6v-19h-10.5v-28h-3v-15H161v15h-2.5v31.5h-2v-7H152v-48h-5.5V210h-4v-16h-4v-12H135v12h-3.5v16H127v19.5h-5.4v16l-1.1 4v6L115 261v-8h-2.3v-13.5l-7.2-12.5v-7.4l-1.5.9v6.5h-2v-6.5h-1.8v6.5L93 239.5v14.3l-3-.8v39H70.5v9.5H66V274H42.1v16.5l-5.6 1.5v-39H18v37.5h-5v-6zM127.3 475l4.4-9 27.7-8.3q3-.9 4.6-1.8 1.7-1 2.6-2l1.4-2q1.3-2.5.3-4.7-1-2.1-4.2-3.8-2.8-1.3-5.8-1.3t-5.7 1.8l-7.7-11.2q5.3-3.3 12-3.6 6.7-.2 14.2 3.4 5.9 3 9.3 7t4.3 8.7-1.6 9.4q-1.2 2.5-3 4.6a18 18 0 0 1-5 3.9q-3.3 1.8-8.5 3.3l-21.9 6.5.1-6.3 27.4 13.6-5.6 11.3zm100.1 35.6a24 24 0 0 1-12.2-5.1 23 23 0 0 1-7.4-11.1 36 36 0 0 1-1-16.2 36 36 0 0 1 5.3-15.3q4-6 10-8.7a24 24 0 0 1 13.3-1.7 24 24 0 0 1 12.2 5.2q5.1 4 7.4 11a36 36 0 0 1 1 16.2 36 36 0 0 1-5.3 15.3q-4 6-10.1 8.8a24 24 0 0 1-13.2 1.6m1.8-13a7 7 0 0 0 4.7-.9q2.2-1.2 3.8-4.7 1.6-3.4 2.4-9.2.8-6 .2-9.6-.7-3.7-2.4-5.6a7 7 0 0 0-4.3-2.2 7 7 0 0 0-4.7 1q-2.2 1.3-3.8 4.7-1.6 3.3-2.4 9.3-.8 5.8-.2 9.5t2.4 5.6a7 7 0 0 0 4.3 2.2m58.5 13.9-1.7-9.8 17.4-23.1q1.8-2.5 2.6-4.3t1-3.1l-.1-2.5q-.5-2.7-2.5-3.9-2.1-1.2-5.7-.5-3 .4-5.4 2.3a11 11 0 0 0-3.5 4.8L277 467a23 23 0 0 1 7.4-10q5.3-4.2 13.6-5.6a29 29 0 0 1 11.6 0q5.1 1.4 8.6 4.6 3.3 3.3 4.2 8.5.5 2.7.3 5.5-.2 2.9-1.7 6.1-1.6 3.3-4.9 7.7L302.3 502l-3.6-5.1 30.1-5.3L331 504zm97-28.4a49 49 0 0 1-11 4.2q-6 1.5-11 1l-.4-13.2a28 28 0 0 0 16-3.2q3.5-1.9 5-4.4t.1-5a5 5 0 0 0-2.2-2.3 6 6 0 0 0-3.9-.2q-2.4.4-6.2 2.5l-13.6 7.1-12.8-30.5 31.7-16.7 5.8 10.9-26.8 14.1 4-10 8.7 20.6-10.5-2.4 11-5.9q7.5-3.9 13-4.2a16 16 0 0 1 15.8 9 18 18 0 0 1-1.6 19.6 31 31 0 0 1-11.1 9M46.6 230 3.1 212l4.2-10.2 37-5.7-2.2 5.3-22.3-29.8 4.2-10 43.5 17.8-4.7 11.3L36.5 180l.8-2L54 200.2l-2.3 5.5-27.5 4.4 1-2.3 26.2 10.8zm25.2-56.1-31.4-18.4 6.4-11 31.5 18.3zm-31.7-26a8 8 0 0 1-4.5 4q-2.8.8-5.3-.7a6 6 0 0 1-3-4.3 8 8 0 0 1 1-5.8q1.9-3 4.5-4a6 6 0 0 1 5.2.6q2.6 1.5 3.3 4.3a8 8 0 0 1-1.2 6m52.6-5.2a24 24 0 0 1-8.3 7.2 18 18 0 0 1-19.2-1.6 18 18 0 0 1-7.3-17.9q.9-5.1 4.5-10a21 21 0 0 1 8.5-7.1q4.8-2.1 9.7-.8l-1.8 11a9 9 0 0 0-4.9.3 8 8 0 0 0-5 6.4q-.1 2 .7 4a10 10 0 0 0 3.2 3.7q2.3 1.7 4.4 2 2.3.3 4.1-.6a8 8 0 0 0 4.7-6.6 9 9 0 0 0-1.1-4.8l10-5q2.6 4.4 2 9.6-.5 5.1-4.2 10.2M94.6 84q3-3 6.7-4.2 3.6-1.2 7.5 0a19 19 0 0 1 7.9 5.2l14.6 14.8-9.1 9L109 95.4q-2.7-2.7-5-3-2.3 0-4.4 1.9-1.5 1.5-2 3.2a6 6 0 0 0 0 3.8q.7 2 2.9 4.2l12.3 12.5-9.1 9-35-35.6 9.1-9 16.7 17h-4.3q-1.2-4.2 0-8.2 1-4 4.4-7.2m41.9 12.5-21.8-29.2 10.2-7.6 21.8 29.2zm-19-36.3a8 8 0 0 1-5.8 1.9q-2.8-.3-4.6-2.6a6 6 0 0 1-1.2-5.2 8 8 0 0 1 3.4-5q2.8-2 5.6-1.8a6 6 0 0 1 4.6 2.5 7 7 0 0 1 1.3 5.3 8 8 0 0 1-3.4 5m56.3 27.9a41 41 0 0 1-9.4 3.7q-4.7 1.2-8.7.7l-.2-10q2.8.5 6.3-.2T168 80q4.6-2.4 5.5-5.5 1-3-1.1-6.8l-2-3.8-4.4-9.3-4.9-9-3.2-5.9 10.7-5.8 14.2 26.2q4.9 9 2.4 16.1a23 23 0 0 1-11.5 11.9m-9.4-12.5a19 19 0 0 1-8.8 2.3 17 17 0 0 1-15.3-9.3 17 17 0 0 1 .6-17.8 19 19 0 0 1 14.7-8.3q3.7 0 7.1 2.7 3.4 2.5 6.3 7.9 2.9 5.3 3.2 9.5t-1.7 7.5-6 5.5m-2.1-10.4a9 9 0 0 0 3.1-2.8 7 7 0 0 0 1.2-3.6q.2-2-1-4a7 7 0 0 0-2.7-3q-1.6-1-3.7-.8a9 9 0 0 0-4 1.1 9 9 0 0 0-3.2 2.8 7 7 0 0 0-.3 7.5 7 7 0 0 0 6.5 3.9q2 0 4-1.1m49.9-6.9-2-6.6-1.2-1.3-3.5-12q-.9-3-3.1-4t-6.1.1a18 18 0 0 0-8.7 5.8l-6.5-7q2.4-3 6.2-5.2a35 35 0 0 1 8-3.5 21 21 0 0 1 14.3 0q6 2.5 8.3 10.9l5.7 19.4zM202 61.8q-4.2 1.3-7.5.7a11 11 0 0 1-8.7-7.6 10 10 0 0 1 0-6q1-2.8 4-5.1t8.4-3.9l8.3-2.4 1.9 6.4-6.6 2q-3 .8-3.9 2.1t-.4 3 2 2.1 3.6 0 3.4-2 1.5-3.8l3 4q.1 4-2.2 6.5a14 14 0 0 1-6.8 4m48.4-46.4a17 17 0 0 1 7.7 1.2q3.6 1.5 5.7 5a19 19 0 0 1 2.5 9l1.3 20.9-12.8.7-1-18.7q-.4-3.9-2-5.5a6 6 0 0 0-4.5-1.6q-2 .2-3.6 1.1t-2.4 3-.7 5l1 17.5-12.7.8-2.2-36.4 12.2-.7.6 10.3-2.5-2.9q1.8-4 5.3-6.2t8-2.5m45.7 39 15-44.7 21 7q7.5 2.5 12.1 7.1 4.7 4.5 6.2 10.7 1.5 6-.8 12.8a23 23 0 0 1-7 10.9A22 22 0 0 1 331 63q-6.5.8-14-1.6zm16-5.9 8 2.7q3.8 1.2 7.1.7 3.4-.4 5.9-2.7 2.5-2.2 3.8-6.1 1.2-4 .6-7.1-.7-3.2-3-5.7a15 15 0 0 0-6.3-3.7l-7.9-2.6zm49.2 34a25 25 0 0 1-8.3-8q-3-4.5-3-9.6t2.8-9.6q3-4.7 7.3-7 4.5-2.2 9.6-2 5.1.4 10 3.4 4.5 2.7 7.3 7 2.6 4.1 2.7 9a19 19 0 0 1-4 11.5q-.4.8-1 1.3l-24.6-15 3.5-5.7 18.9 11.5-5.2-1a9 9 0 0 0 1.5-4 7 7 0 0 0-3.7-6.8 8 8 0 0 0-4-1.3q-2 0-3.7 1a9 9 0 0 0-3.1 3.3l-1 1.7q-1.4 2.2-1.4 4.5t1.1 4.2a11 11 0 0 0 3.7 3.5q2.4 1.5 4.4 1.7 2 .4 4.4 0l2.1 9.5q-3.6 1-7.8.3-4-.6-8.5-3.4M386 99.6l12.8-37.4 9.9 8.7-11.1 30.8-5-4.3 29.6-14.7 9.1 8-35.3 17.6zm49.8 12 13.8 16.8-8 6.5-13.7-16.7zM416 129.1l-8.4-10.3L443.9 89l23.4 28.5-8 6.5-14.9-18.2zm23.8 33.9a25 25 0 0 1-3.8-11q-.5-5.4 1.8-9.9a18 18 0 0 1 6.8-7.4q4.6-3 9.6-3t9.4 2.6q4.5 2.6 7.5 7.4 3 4.6 3.3 9.5.6 5-1.7 9.4a19 19 0 0 1-8.6 8.5l-1.4.7-15.3-24.5 5.6-3.5 11.8 18.7-4.2-3a9 9 0 0 0 3.1-3.2q1-1.8 1-3.7t-1.2-4a8 8 0 0 0-3-2.8 7 7 0 0 0-3.9-.8q-2 .2-4.1 1.5l-1.7 1q-2.2 1.5-3.3 3.5t-.9 4.3a11 11 0 0 0 1.8 4.7q1.5 2.3 3.1 3.5t4 2L453 173q-3.8-.7-7.1-3.2-3.3-2.4-6-6.8m16.3 30.5a39 39 0 0 1-2.8-8.7q-1-4.5-.5-7.6l9.5-.1q-.3 2.9.2 6.4a26 26 0 0 0 2 6.5q1.4 3 2.5 3.8 1.2.9 2.2.4t1-1.7q0-1.4-.6-3.2l-1.2-4q-.8-2.2-1.1-4.6-.5-2.4-.2-4.6t1.6-4.1a10 10 0 0 1 4.2-3.2q3-1.5 6.4-.7 3.4.7 6.5 3.7 3 3 5.5 8 1.5 3.7 2.5 7.5 1 4 .7 7l-9.5.1q.3-3-.4-5.7t-1.6-5a10 10 0 0 0-2.5-3.8q-1.3-.9-2.2-.4t-1 1.7q0 1.4.5 3.2l1.2 4q.6 2.2 1 4.6t.2 4.6a9 9 0 0 1-5.8 7.3q-3 1.4-6.3.6t-6.4-3.7-5.6-8.3m13.7 35a16 16 0 0 1-.3-11.4q2-4.8 8.7-7l29.6-10.2L512 212l-29.5 10q-1.8.8-2.6 2-.6 1.5-.1 3a6 6 0 0 0 2.3 3.3l-7.4 6q-1.6-1.3-2.8-3.4a23 23 0 0 1-2-4.4M488 201l9-3 8.5 25-9 3z"/>
  </g>
  <defs>
    <clipPath id="a">
      <path fill="#fff" d="M0 0h512v512H0z"/>
    </clipPath>
  </defs>
</svg>