<svg
  height="100"
  viewBox="0 0 224 164"
  width="100"
  xmlns="http://www.w3.org/2000/svg"
>
  <g transform="translate(0, -10)">
    <path
      d="m349.806 388.316h-23.882a5.626 5.626 0 0 1 -5.624-5.623v-105.17a5.626 5.626 0 0 1 5.624-5.623h23.882a5.626 5.626 0 0 1 5.623 5.623v105.242a5.659 5.659 0 0 1 -5.623 5.551z"
      fill="none"
      opacity=".3"
      transform="translate(-273.047 -236.911)"
    />
    <path
      d="m477.059 388.316h-23.736a5.626 5.626 0 0 1 -5.623-5.623v-105.17a5.673 5.673 0 0 1 5.623-5.623h23.736a5.626 5.626 0 0 1 5.624 5.623v105.242a5.611 5.611 0 0 1 -5.624 5.551z"
      fill="#00bfa5"
      transform="translate(-307.403 -236.911)"
    />
    <path
      d="m492.832 382.792v-105.241a5.7 5.7 0 0 0 -5.332-5.551 5.532 5.532 0 0 1 5.843 5.551v105.241z"
      fill="#04a88c"
      opacity=".3"
      transform="translate(-318.135 -236.938)"
    />
    <path
      d="m448.31 383.084h-.51v-105.241a5.428 5.428 0 0 1 1.972-4.528 5.951 5.951 0 0 1 3.139-1.315h24.466a5.63 5.63 0 0 1 4.382 2.483 6.069 6.069 0 0 1 .95 3.36 5.362 5.362 0 0 0 -5.332-5.331h-23.736a5.243 5.243 0 0 0 -5.332 4.528c-.073.876-.073 1.826-.073 2.118z"
      fill="#1ce9b6"
      opacity=".3"
      transform="translate(-307.428 -236.938)"
    />
    <path
      d="m349.859 388.316-23.3-.438c-3.067 0-6.062-2.045-6.062-5.113v-105.242a5.626 5.626 0 0 1 5.624-5.623h23.736a5.626 5.626 0 0 1 5.624 5.623v105.242a5.659 5.659 0 0 1 -5.622 5.551z"
      fill="#4285f4"
      transform="translate(-273.102 -236.911)"
    />
    <path
      d="m385.6 328.829 45.938 69.163a5.411 5.411 0 0 0 5.4 3.214h23.444c6.062 0 6.354-7.376 5.4-9.056l-46.668-69.236a6.293 6.293 0 0 0 -5.4-3.214"
      fill="#1ce9b6"
      transform="translate(-290.657 -249.801)"
    />
    <path
      d="m437.462 404.6c-2.264 0-4.236-.365-5.77-3.067l-29.36-44.258-16.432-24.983.438-.292 45.719 69.09.146.292c1.461 2.556 3.14 3.214 5.258 3.214z"
      fill="#46f7c5"
      opacity=".4"
      transform="translate(-290.737 -253.118)"
    />
    <path
      d="m368.219 331.392h-.219l.073-52.219.146-.073z"
      fill="#2a6fd3"
      opacity=".3"
      transform="translate(-285.91 -238.853)"
    />
    <path
      d="m321.011 381.085h-.511v-103.485a3.559 3.559 0 0 1 .073-.877 5.7 5.7 0 0 1 2.264-3.8 5.435 5.435 0 0 1 3.214-1.022h24.028a5.455 5.455 0 0 1 4.09 2.045 5.236 5.236 0 0 1 1.242 3.214h-.146a5.5 5.5 0 0 0 -5.259-4.82h-24.029a5.023 5.023 0 0 0 -3.944 1.9 6.554 6.554 0 0 0 -1.388 3.944z"
      fill="#4fc3f7"
      opacity=".3"
      transform="translate(-273.101 -236.911)"
    />
    <path
      d="m472.421 402.438h-23.37c-2.264 0-3.8-.438-5.4-3.213l.438-.292c1.461 2.556 2.848 2.921 4.893 2.921h23.371a4.542 4.542 0 0 0 4.382-2.41c1.315-2.264 1.169-4.82.657-5.7l-46.892-69.452.438-.292 46.888 69.455c.658 1.169.146 5.112-.657 6.281a5.047 5.047 0 0 1 -4.748 2.702z"
      fill="#24ce9e"
      opacity=".3"
      transform="translate(-302.764 -250.96)"
    />
    <path
      d="m350.258 401.206h-23.882c-4.893 0-7.23-4.674-5.4-9.056l47.034-69.236a6.293 6.293 0 0 1 5.4-3.214h22.79a6.073 6.073 0 0 1 5.259 9.056l-45.792 69.163a6.217 6.217 0 0 1 -5.409 3.287z"
      fill="#4fc3f7"
      transform="translate(-273.062 -249.801)"
    />
    <path
      d="m330.1 401.233h-3.433a6.1 6.1 0 0 1 -5.331-2.629 6.851 6.851 0 0 1 -.366-6.427l.073-.073 46.957-69.164a6.392 6.392 0 0 1 5.55-3.14h22.787a5.339 5.339 0 0 1 2.41.584 5.859 5.859 0 0 1 1.534 1.1 5.46 5.46 0 0 1 1.1 1.461s-2.994-2.556-5.039-2.556h-22.788a5.8 5.8 0 0 0 -5.112 2.922l-47.034 69.163a6.43 6.43 0 0 0 .292 5.916 5.717 5.717 0 0 0 4.82 2.629l3.579.219z"
      fill="#6ed2f4"
      opacity=".3"
      transform="translate(-273.06 -249.828)"
    />
    <path
      d="m350.783 401.345h-24.466a5.882 5.882 0 0 1 -3.141-1.169l-.876-.876a10.25 10.25 0 0 0 3.944 1.461c.876.073 24.32.073 24.612.073a6.053 6.053 0 0 0 5.185-3.141l45.719-69.163a5.509 5.509 0 0 0 -.219-5.7 5.365 5.365 0 0 0 -1.753-2.118c-1.315-.8-.876-.511 0 0a6.116 6.116 0 0 1 2.41 8.107v.073c-3.8 5.77-10.079 15.264-16.8 25.416-13.584 20.522-28.921 43.747-28.921 43.747-1.604 2.121-3.43 3.29-5.694 3.29z"
      fill="#30a5ce"
      opacity=".3"
      transform="translate(-273.587 -249.94)"
    />
    <g fill="#4fc3f7" opacity=".3">
      <path
        d="m323 450.747a3.667 3.667 0 0 0 -3.8-3.505l-27.168-.219a4.652 4.652 0 0 1 -1.972-.511l-.073-.073a1.528 1.528 0 0 1 -.438-.292l-.149-.147a3.063 3.063 0 0 0 1.388.657c.073 0 .365.073.438.073h27.9a3.811 3.811 0 0 1 2.264.73 3.441 3.441 0 0 1 1.1 1.388 3.371 3.371 0 0 1 .51 1.899z"
        transform="translate(-264.715 -283.859)"
      />
      <path
        d="m260.249 224.1h50.9a3.768 3.768 0 0 1 3.725 3.652c0-1.9-2.191-3.213-3.725-3.213h-50.9a.552.552 0 0 0 -.292.073l-.657-.365a3.244 3.244 0 0 1 .949-.147z"
        transform="translate(-256.598 -224.021)"
      />
    </g>
    <g fill="#1ce9b6" opacity=".3" transform="translate(163.742 .079)">
      <path
        d="m511.132 256.1c2.191 0 3.943 1.315 3.943 3.506l.073 132.118a4.473 4.473 0 0 1 -1.169 3.214 4.58 4.58 0 0 1 -3.286 1.241h-27.022a3.168 3.168 0 0 0 -3.287 3.214v15.556a4.022 4.022 0 0 0 .949 2.775 5.139 5.139 0 0 0 2.264 1.169 1.423 1.423 0 0 1 -.585-.073 3.732 3.732 0 0 1 -3.213-3.871v-15.557a3.684 3.684 0 0 1 3.8-3.8h27.021a4.025 4.025 0 0 0 2.921-1.1 3.636 3.636 0 0 0 1.023-2.848v-132.111a3.427 3.427 0 0 0 -3.432-3.433z"
        transform="translate(-479.8 -232.729)"
      />
      <path d="m3.944 22.933h27.388" />
      <path
        d="m483.771 247.544a3.737 3.737 0 0 1 -3.87-3.944v-15.994a3.7 3.7 0 0 1 3.725-3.506c.073 0 41.7.073 50.612 0a3.742 3.742 0 0 1 2.045.657l-.73-.146h-51.853a3.013 3.013 0 0 0 -3.14 3.068l-.146 15.994c0 1.9 1.388 3.944 3.287 3.944"
        transform="translate(-479.827 -224.1)"
      />
    </g>
    <path
      d="m310.156 410.409h-50.831a3.74 3.74 0 0 1 -3.725-3.725v-178.859a3.74 3.74 0 0 1 3.725-3.725h50.832a3.74 3.74 0 0 1 3.725 3.725v15.848a3.74 3.74 0 0 1 -3.725 3.725h-27.535a3.741 3.741 0 0 0 -3.725 3.725v132.118a3.741 3.741 0 0 0 3.725 3.725h27.534a3.74 3.74 0 0 1 3.725 3.725v15.994a3.74 3.74 0 0 1 -3.725 3.724z"
      fill="#4285f4"
      transform="translate(-255.6 -224.021)"
    />
    <g fill="#2a6fd3" opacity=".3">
      <path
        d="m259.386 471.083a3.759 3.759 0 0 1 -3.286-2.118 3.659 3.659 0 0 0 3.286 1.607h50.831a3.12 3.12 0 0 0 3.287-2.922l.146-15.921a13.938 13.938 0 0 0 -.146-1.461l-.292-1.168.219.365a4.13 4.13 0 0 1 .511 1.826v16.36a3.766 3.766 0 0 1 -3.8 3.432z"
        transform="translate(-255.735 -284.695)"
      />
      <path
        d="m290.644 386.936c-.949 0-3.944-1.241-3.944-3.433v-132.191c0-2.191 1.68-4.6 3.871-4.6h27.242c1.826 0 3.871-.877 3.871-2.849v-15.848c0-1.9-1.534-4.017-3.432-4.017a3.686 3.686 0 0 1 3.286 1.534 3.589 3.589 0 0 1 .73 2.483v15.7a2.337 2.337 0 0 1 -.073.511 3.62 3.62 0 0 1 -.584 1.461 4.479 4.479 0 0 1 -1.388 1.242 4.328 4.328 0 0 1 -2.41.365h-26.95a3.249 3.249 0 0 0 -1.68.511 3.805 3.805 0 0 0 -1.9 3.505v132.12a3.021 3.021 0 0 0 .8 1.972 3.542 3.542 0 0 0 2.556 1.534z"
        transform="translate(-263.987 -223.992)"
      />
    </g>
    <path
      d="m483.625 224.1h50.612a3.74 3.74 0 0 1 3.724 3.725v178.86a3.74 3.74 0 0 1 -3.724 3.725h-50.612a3.74 3.74 0 0 1 -3.725-3.725v-15.849a3.74 3.74 0 0 1 3.725-3.725h27.387a3.74 3.74 0 0 0 3.725-3.724v-132.187a3.74 3.74 0 0 0 -3.725-3.725h-27.387a3.74 3.74 0 0 1 -3.725-3.725v-15.998a3.726 3.726 0 0 1 3.725-3.652z"
      fill="#00bfa5"
      transform="translate(-316.085 -224.021)"
    />
    <path
      d="m555.9 410.3a4.014 4.014 0 0 0 1.972-3.506v-178.642a4.24 4.24 0 0 0 -1.972-3.652 3.855 3.855 0 0 1 2.483 3.725v178.64a3.631 3.631 0 0 1 -2.483 3.435z"
      fill="#04a88c"
      opacity=".3"
      transform="translate(-336.58 -224.129)"
    />
    <path
      d="m535.153 478.7c-.146 0-.438.073-.584.073h-49.736a11.872 11.872 0 0 1 -1.68-.073 3.4 3.4 0 0 1 -1.387-.657l-.219-.219-.146-.146a8.353 8.353 0 0 0 1.388.511 10.053 10.053 0 0 0 2.045.073h.438l49.444.073a5.467 5.467 0 0 0 2.629-.73l-.219.219a3.164 3.164 0 0 1 -1.46.8c-.075-.002-.366.076-.513.076z"
      fill="#04a88c"
      opacity=".3"
      transform="translate(-316.49 -292.38)"
    />
    <path
      d="m479.9 250.8c0 1.9 1.972 3.432 3.871 3.432h27.388c2.191 0 3.505 1.607 3.505 3.8a3.694 3.694 0 0 0 -3.505-3.359h-27.388a3.835 3.835 0 0 1 -3.871-3.287z"
      fill="#04a88c"
      opacity=".4"
      transform="translate(-316.085 -231.221)"
    />
    <path
      d="m258.4 224.2.657.365a3.45 3.45 0 0 0 -2.848 3.214v178.64a4.239 4.239 0 0 0 1.972 3.652 3.856 3.856 0 0 1 -2.483-3.725v-178.64a3.68 3.68 0 0 1 2.702-3.506z"
      fill="#4fc3f7"
      opacity=".4"
      transform="translate(-255.625 -224.048)"
    />
    <g fill="none">
      <path
        d="m311.256 410.409h-50.831a3.74 3.74 0 0 1 -3.725-3.725v-178.859a3.74 3.74 0 0 1 3.725-3.725h50.831a3.741 3.741 0 0 1 3.725 3.725v15.848a3.74 3.74 0 0 1 -3.725 3.725h-27.534a3.741 3.741 0 0 0 -3.722 3.725v132.118a3.741 3.741 0 0 0 3.725 3.725h27.534a3.74 3.74 0 0 1 3.725 3.725v15.994a3.74 3.74 0 0 1 -3.728 3.724z"
        transform="translate(-255.897 -224.021)"
      />
      <g opacity=".3">
        <path
          d="m260.487 471.083a3.759 3.759 0 0 1 -3.286-2.118 3.659 3.659 0 0 0 3.286 1.607h50.832a3.12 3.12 0 0 0 3.286-2.922l.146-15.921a13.968 13.968 0 0 0 -.146-1.461l-.292-1.168.219.365a4.132 4.132 0 0 1 .511 1.826v16.36a3.766 3.766 0 0 1 -3.8 3.432z"
          transform="translate(-256.032 -284.695)"
        />
        <path
          d="m291.744 386.936c-.949 0-3.944-1.241-3.944-3.433v-132.191c0-2.191 1.68-4.6 3.871-4.6h27.241c1.826 0 3.871-.877 3.871-2.849v-15.848c0-1.9-1.534-4.017-3.432-4.017a3.687 3.687 0 0 1 3.286 1.534 3.589 3.589 0 0 1 .73 2.483v15.7a2.331 2.331 0 0 1 -.073.511 3.618 3.618 0 0 1 -.584 1.461 4.481 4.481 0 0 1 -1.388 1.242 4.328 4.328 0 0 1 -2.41.365h-26.949a3.248 3.248 0 0 0 -1.68.511 3.8 3.8 0 0 0 -1.9 3.505v132.12a3.021 3.021 0 0 0 .8 1.972 3.326 3.326 0 0 0 2.556 1.534z"
          transform="translate(-264.284 -223.992)"
        />
      </g>
      <path
        d="m484.725 224.1h50.612a3.74 3.74 0 0 1 3.725 3.725v178.86a3.74 3.74 0 0 1 -3.725 3.725h-50.612a3.74 3.74 0 0 1 -3.725-3.726v-15.848a3.741 3.741 0 0 1 3.725-3.725h27.388a3.74 3.74 0 0 0 3.725-3.724v-132.118a3.74 3.74 0 0 0 -3.725-3.725h-27.388a3.741 3.741 0 0 1 -3.725-3.725v-15.994a3.74 3.74 0 0 1 3.725-3.725z"
        transform="translate(-316.382 -224.021)"
      />
      <path
        d="m557 410.3a4.014 4.014 0 0 0 1.972-3.506v-178.642a4.24 4.24 0 0 0 -1.972-3.652 3.856 3.856 0 0 1 2.483 3.725v178.64a3.631 3.631 0 0 1 -2.483 3.435z"
        opacity=".3"
        transform="translate(-336.877 -224.129)"
      />
      <path
        d="m536.253 478.7c-.146 0-.438.073-.584.073h-49.736a11.87 11.87 0 0 1 -1.68-.073 3.4 3.4 0 0 1 -1.388-.657l-.219-.219-.146-.146a8.36 8.36 0 0 0 1.388.511 10.054 10.054 0 0 0 2.045.073h.438l49.444.073a5.465 5.465 0 0 0 2.629-.73l-.219.219a3.161 3.161 0 0 1 -1.461.8c-.073-.002-.364.076-.511.076z"
        opacity=".3"
        transform="translate(-316.787 -292.38)"
      />
    </g>
  </g>
</svg>
