<svg width="512" height="509" viewBox="0 0 512 509" fill="none" xmlns="http://www.w3.org/2000/svg">
<g clip-path="url(#clip0_14_188)">
<path d="M508.428 224.537C502.97 216.309 487.243 213.979 475.634 210.956C460.998 208.874 449.439 197.573 446.908 183.05C443.783 174.326 440.111 165.85 435.845 157.622C434.208 153.012 434.208 148.056 435.845 143.446C441.55 129.617 448.893 116.482 454.698 102.653C455.739 98.6377 454.946 94.375 452.465 91.0541C442.443 79.4555 431.181 69.8891 421.06 58.9844C417.687 54.3252 411.138 53.2843 406.425 56.6548C406.375 56.6548 406.325 56.7044 406.276 56.7539C394.666 63.148 381.271 68.3525 369.066 74.8953C363.51 78.2163 356.564 78.2163 351.057 74.8953C339.448 69.096 326.995 65.2298 315.336 59.5792C310.623 57.2 306.753 53.3834 304.422 48.6746C298.815 35.7872 294.201 22.3051 289.885 8.82297C288.744 3.1228 283.336 -0.693829 277.532 0.247937H233.674C228.812 0.892303 224.496 3.76717 222.065 8.0299C216.36 21.4129 212.192 35.4403 206.834 48.9224C205.246 52.8382 202.418 56.06 198.797 58.2409C183.318 65.329 167.392 76.9276 152.26 76.5806C137.129 76.2336 121.302 63.8915 105.724 56.8035L104.781 56.1096C100.961 52.7886 95.1564 53.2347 91.8324 57.0513C91.5347 57.3983 91.2867 57.6957 91.0882 58.0922C80.62 68.8978 69.9037 78.5633 59.4355 90.1619C56.6572 93.8794 55.8138 98.7369 57.1037 103.198C62.8092 117.027 70.1518 130.162 76.0557 143.991C77.4944 148.254 77.4944 152.864 76.0557 157.126C71.0448 169.915 65.6867 183.149 59.7828 194.797C57.6991 199.258 54.1766 202.876 49.7611 205.156C36.713 210.609 23.2185 215.367 9.72388 219.68C3.47272 220.671 -0.843561 226.52 0.0494625 232.815C0.0494625 246.892 0.644811 261.068 0.0494625 275.244C-0.545886 281.291 3.67117 286.793 9.72388 287.784C22.8712 291.948 36.0185 296.508 48.5704 301.861C53.5316 304.092 57.6495 307.859 60.1797 312.667C66.034 324.662 71.1936 336.954 75.6588 349.495C77.3952 354.451 77.3952 359.854 75.6588 364.811C69.8541 378.541 62.5115 391.18 57.0541 404.662C55.7642 409.173 56.6076 414.03 59.3859 417.797C69.0603 428.603 80.2231 438.268 89.9967 448.925C93.8169 453.783 100.763 454.774 105.823 451.255C118.375 444.613 131.423 438.814 144.223 432.767L151.566 429.644C161.191 435.195 171.411 439.706 182.028 443.027C198.598 446.1 211.349 459.384 213.78 476.038C216.707 486.745 219.237 500.772 227.026 506.125C234.815 511.478 248.905 508.009 260.316 508.108C286.363 508.108 287.553 508.108 295.194 483.225C299.659 462.903 314.642 446.497 334.487 440.251C351.553 431.775 371.746 432.519 388.118 442.234C413.916 456.757 414.76 455.369 435.696 434.551C458.964 411.998 459.56 411.304 444.279 383.299C435.646 367.884 435.101 349.247 442.791 333.336C449.24 312.171 466.902 296.359 488.632 292.196C511.901 285.901 511.901 284.661 511.901 261.167C510.859 248.726 514.332 233.409 508.428 224.686V224.537ZM255.107 410.462C165.854 409.768 93.5192 337.946 92.2789 248.825C92.2789 158.96 165.259 86.1469 255.206 86.1965C345.104 86.1965 417.935 159.01 417.984 248.825C416.893 338.094 344.459 410.015 255.156 410.61V410.511L255.107 410.462Z" fill="#00C605"/>
<path d="M350.809 163.322C308.589 178.291 266.369 193.211 224.149 208.279L244.391 226.965C247.715 225.925 251.138 225.429 254.611 225.478C271.132 224.933 284.974 237.821 285.668 254.277C285.668 257.399 285.122 260.522 284.031 263.447L304.372 282.133C320.446 244.016 336.422 205.85 352.298 167.684C352.893 166.197 353.34 164.66 354.282 162.331L350.809 163.272V163.322Z" fill="#EE7D33"/>
<path d="M263.343 281.836C260.465 282.579 257.488 282.976 254.512 282.976C238.04 283.571 224.099 270.832 223.206 254.376C223.206 251.551 223.653 248.725 224.496 245.999L204.155 227.312C189.718 261.613 175.33 295.962 160.992 330.262L154.344 346.322L157.966 345.281L283.833 300.522L263.343 281.836Z" fill="#EE7D33"/>
</g>
<defs>
<clipPath id="clip0_14_188">
<rect width="512" height="509" fill="white"/>
</clipPath>
</defs>
</svg>
