<svg xmlns="http://www.w3.org/2000/svg" width="512" height="512" fill="none" viewBox="0 0 512 512"><g clip-path="url(#a)"><path fill="#fec405" fill-rule="evenodd" d="M399.325 274.407c.153 2.658.225 5.335.225 8.028 0 43.954-20.037 83.319-51.468 109.447l-1.656 1.381-3.433-5.856 1.19-.994c29.726-24.897 48.654-62.263 48.654-103.967q0-3.683-.193-7.317l-.089-1.628 6.658-1.145zm-9.544-20.656c-5.548-25.658-18.389-48.634-36.231-66.652l-1.254-1.266 4.639-4.859 1.327 1.337c18.718 18.882 32.194 42.964 38.048 69.856l.37 1.697-6.489 1.777zM123.532 364.512c-14.827-23.974-23.39-52.203-23.39-82.393 0-86.703 70.612-157.242 157.411-157.242s157.411 70.539 157.411 157.242-70.612 157.242-157.411 157.242c-43.58 0-83.076-17.78-111.604-46.461l-1.367-1.369 5.243-4.692 1.222 1.23c27.249 27.33 64.936 44.269 106.506 44.269 82.915 0 150.368-67.378 150.368-150.207s-67.453-150.207-150.368-150.207c-82.907 0-150.368 67.378-150.368 150.207 0 28.708 8.105 55.559 22.144 78.393l.82 1.343-1.198 1.017a39 39 0 0 1-2.822 2.173l-1.584 1.093zm2.549-137.748c21.725-50.894 72.293-86.656 131.062-86.656 24.106 0 46.837 6.019 66.761 16.632l1.793.956-3.771 5.599-1.455-.771a137 137 0 0 0-7.1-3.499c-17.143-7.83-36.183-12.195-56.228-12.195-55.665 0-103.612 33.676-124.517 81.716l-.74 1.704-1.689-.765c-.554-.249-1.27-.313-2.179-.186zm207.593 175.655c-22.12 14.14-48.389 22.344-76.531 22.344-78.525 0-142.408-63.848-142.408-142.328q.002-1.054.016-2.107l.032-1.977 6.698.609-.024 1.695q-.01.894-.008 1.791c0 74.783 60.868 135.615 135.694 135.615 26.638 0 51.516-7.712 72.502-21.021l1.303-.829 4.543 5.045zm-70.083 6.118c-2.106.106-4.221.16-6.36.16-69.527 0-126.101-57.073-126.101-127.235s56.574-127.235 126.101-127.235c52.264 0 97.212 32.245 116.308 78.06l.917 2.196-6.521.897-.547-1.291c-18.293-43.153-60.779-73.469-110.157-73.469-66.021 0-119.741 54.214-119.741 120.851s53.704 120.851 119.741 120.851q3.064 0 6.103-.154l1.866-.095.185 6.374zm114.788-162.458a128 128 0 0 1 4.961 35.383c0 52.319-31.463 97.361-76.289 116.885l-1.423.618-3.538-5.418 2.002-.861c42.808-18.442 72.888-61.349 72.888-111.215 0-11.886-1.712-23.378-4.896-34.236l-.652-2.233 6.545-.318zM258.952 395.994q-.786.01-1.584.01c-63.248 0-114.708-51.121-114.708-113.951 0-49.308 31.697-91.405 75.904-107.241l1.383-.495 3.353 5.299-2.171.764c-42.109 14.851-72.35 54.821-72.35 101.681 0 59.479 48.71 107.856 108.589 107.856.531 0 1.053-.004 1.576-.011l1.897-.028-.112 6.092zm-20.471-226.348a116 116 0 0 1 18.887-1.545c63.256 0 114.708 51.122 114.708 113.952 0 57.883-43.669 105.829-100.002 113.02l-1.761.225-.973-6.015 1.882-.239c53.358-6.774 94.743-52.164 94.743-106.983 0-59.479-48.718-107.856-108.597-107.856-5.87 0-11.643.466-17.263 1.362l-1.383.221-2.597-5.754zm19.313 213.361c-55.931 0-101.432-45.204-101.432-100.758 0-55.555 45.501-100.758 101.432-100.758s101.425 45.203 101.425 100.758-45.494 100.758-101.425 100.758m0-195.7c-52.714 0-95.603 42.588-95.603 94.948 0 52.362 42.889 94.949 95.603 94.949s95.603-42.587 95.603-94.949c0-52.36-42.889-94.948-95.603-94.948m52.079 155.304c17.038-14.765 27.821-36.531 27.821-60.768 0-44.372-36.151-80.465-80.599-80.465a80.5 80.5 0 0 0-23.27 3.415l-1.447.437-2.597-4.947 2.114-.646a86 86 0 0 1 25.2-3.754c47.471 0 86.091 38.559 86.091 85.954 0 26.041-11.659 49.415-30.04 65.191l-1.729 1.485-2.653-4.943zm-51.026 25.164a85 85 0 0 1-1.752.017c-47.48 0-86.1-38.559-86.1-85.955 0-33.056 18.783-61.816 46.266-76.19l1.568-.82 2.718 4.78-1.689.88c-25.754 13.446-43.371 40.385-43.371 71.356 0 44.373 36.159 80.466 80.608 80.466.49 0 .989-.004 1.479-.013l1.664-.03.628 5.468zm4.455-156.95c37.325 3.038 66.777 34.639 66.777 73.053 0 40.418-32.604 73.292-72.671 73.292-40.074 0-72.679-32.874-72.679-73.292 0-34.661 23.977-63.775 56.075-71.365l1.761-.415 1.279 5.061-1.81.428c-29.83 7.039-52.103 34.093-52.103 66.296 0 37.536 30.257 68.078 67.477 68.078 37.212 0 67.469-30.542 67.469-68.078 0-35.634-27.266-64.965-61.872-67.846l-1.681-.14v-5.234zm74.247-81.337c54.934 28.77 92.5 86.352 92.5 152.541 0 94.876-77.19 172.069-172.07 172.069s-172.07-77.193-172.07-172.069S163.1 109.96 257.98 109.96c11.828 0 23.382 1.201 34.551 3.486l2.307.472-1.029 2.12c-.281.594-.523 1.218-.635 1.838l-.346 1.83-1.825-.369a166 166 0 0 0-33.023-3.299c-15.277 0-30.088 2.074-44.143 5.958-70.171 19.379-121.848 83.784-121.848 160.033 0 91.53 74.465 165.992 165.991 165.992S423.97 373.559 423.97 282.029c0-63.903-36.296-119.486-89.356-147.219l-1.712-.897 3.111-5.23z" clip-rule="evenodd"/><path fill="#fff" d="M2.5 314.5v50H503v-69h-8.5v3.5h-6v27.5H481V299h-4.5v-3.5h-14v31h-3v-71c-.5-.833-2.2-2.5-5-2.5s-4.167 1.667-4.5 2.5l-1.5 7.363L432 268v36h-3.5v-28.572l-7-1.875-11 2.947V230l-5-5v-8h-4.095v7S386 225 380.5 233.5v29.363l-10 2.68-1.5 5.598-20 5.359V328h-5v-10.108l-6-10.392h-3.5v-12l-2 .536V288.5h-12v7.536l-2-.536v23.557h-5.345V309.5l-1.155-2v-12l-2-2-2 2v12l-2 2v9.557c-.699.981-2.178 2.643-2.5 1.443s-17.134-.5-25.5 0v6h-3.5v-6h-11v6h-7V291H254v-2.5l-3.5-2.021V291h-5v-4.521L242 288.5v2.5h-2.5v20h-3.938l.938-3.5h-5V304H224v-45.464L222 262h-7.887l-.67-2.5L212 262h-5l-2.5-2.5v63.17L202 322v-14.5h-6V330h-6v-19h-10.5v-28h-3v-15H161v15h-2.5v31.5h-2v-7H152v-48h-5.5V240h-4v-16h-4v-12H135v12h-3.5v16H127v19.5h-5.428v16l-1.072 4v6L115 291v-8h-2.283v-13.5L105.5 257v-7.366l-1.5.866v6.5h-2v-6.5h-1.783v6.5L93 269.5v14.304L90 283v39H70.5v9.5H66V304H42.098v16.5L36.5 322v-39H18v37.5h-5v-6zM46.635 259.934 3.138 241.973l4.182-10.126 37.017-5.759-2.202 5.336-22.346-29.777 4.182-10.127 43.543 17.856-4.683 11.336-26.299-10.738.8-1.938 16.569 22.175-2.257 5.46-27.548 4.426.965-2.34 26.257 10.842zM71.816 203.872l-31.45-18.399 6.452-11.025 31.45 18.399zm-31.708-25.949q-1.759 3.018-4.532 3.89c-1.848.582-3.599.386-5.262-.587-1.664-.973-2.698-2.407-3.093-4.301q-.6-2.841 1.167-5.859t4.449-3.941q2.68-.923 5.175.537 2.612 1.527 3.254 4.356c.427 1.887.046 3.855-1.158 5.905M92.708 172.759q-3.605 4.886-8.341 7.269-4.738 2.384-9.772 2.009c-3.355-.249-6.512-1.461-9.458-3.635q-4.44-3.274-6.26-7.951-1.818-4.678-.947-9.91.877-5.232 4.477-10.117 3.682-4.991 8.461-7.06c3.19-1.38 6.43-1.639 9.734-.776l-1.77 10.951c-1.888-.308-3.524-.187-4.898.361a7.6 7.6 0 0 0-3.383 2.61q-1.294 1.755-1.563 3.809-.262 2.054.653 4.034.916 1.979 3.171 3.638c1.498 1.106 2.978 1.761 4.43 1.964q2.18.305 4.063-.556 1.884-.86 3.181-2.617a7.66 7.66 0 0 0 1.498-3.997q.186-2.21-1.112-4.792l9.937-4.931c1.792 2.891 2.5 6.065 2.132 9.521q-.558 5.185-4.233 10.176M94.594 113.975q3.054-3 6.673-4.176 3.627-1.176 7.542-.009c2.611.777 5.235 2.51 7.882 5.198l14.611 14.845-9.105 8.96-13.149-13.363q-2.743-2.786-5.106-2.942-2.364-.155-4.357 1.804-1.457 1.436-2.018 3.226-.557 1.791.092 3.794c.437 1.335 1.37 2.731 2.808 4.19l12.336 12.537-9.105 8.96-34.989-35.553 9.105-8.96 16.697 16.965-4.265-.082c-.864-2.819-.892-5.555-.097-8.209q1.192-3.982 4.445-7.185M136.5 126.498l-21.79-29.204 10.236-7.639 21.794 29.204zm-19.082-36.256c-1.871 1.394-3.765 1.999-5.695 1.814q-2.89-.276-4.619-2.593-1.725-2.316-1.167-5.166.556-2.85 3.359-4.94c1.866-1.393 3.746-2.025 5.63-1.895 1.889.13 3.406.968 4.56 2.512 1.204 1.617 1.64 3.377 1.296 5.28q-.51 2.857-3.364 4.988M173.724 118.204q-4.64 2.516-9.389 3.729-4.744 1.215-8.779.706l-.179-10.043c1.88.336 3.985.268 6.324-.205q3.508-.708 6.347-2.248c3.015-1.634 4.831-3.471 5.456-5.51.62-2.039.248-4.325-1.126-6.86l-2.041-3.764-4.288-9.323-4.945-8.992-3.195-5.896 10.691-5.794 14.202 26.2q4.936 9.103 2.394 16.131c-1.696 4.685-5.515 8.642-11.472 11.869m-9.38-12.547q-4.245 2.3-8.861 2.316-4.613.016-8.655-2.282-4.038-2.298-6.595-7.012c-1.7-3.143-2.463-6.26-2.275-9.354q.283-4.64 2.827-8.468c1.7-2.552 3.961-4.595 6.793-6.129q4.123-2.235 7.882-2.155c2.509.054 4.885.949 7.142 2.686q3.377 2.606 6.251 7.906 2.874 5.302 3.212 9.556t-1.631 7.478q-1.967 3.222-6.09 5.458m-2.179-10.38q2.033-1.104 3.162-2.78a6.95 6.95 0 0 0 1.209-3.645q.089-1.968-.96-3.909-1.074-1.981-2.762-2.96a6.8 6.8 0 0 0-3.691-.924q-2.001.057-4.035 1.16-1.977 1.072-3.149 2.734-1.17 1.663-1.287 3.622c-.082 1.306.239 2.62.952 3.94q1.055 1.94 2.771 2.93t3.764.947q2.048-.043 4.026-1.116M212.106 88.256l-1.922-6.516-1.282-1.358-3.53-11.985q-.86-2.92-3.107-3.97c-1.493-.699-3.52-.672-6.071.08a18 18 0 0 0-4.899 2.316q-2.335 1.558-3.746 3.485l-6.54-7.058q2.386-2.872 6.227-5.148a35 35 0 0 1 7.97-3.49q8.508-2.51 14.335.004 5.826 2.514 8.287 10.868l5.717 19.4zm-10.107 3.594q-4.184 1.23-7.506.663-3.316-.567-5.552-2.554-2.226-1.987-3.116-4.998-.951-3.237-.027-6.07.925-2.835 3.98-5.12c2.036-1.525 4.844-2.815 8.434-3.873l8.291-2.444 1.898 6.428-6.595 1.943q-2.958.873-3.875 2.177-.91 1.303-.427 2.947.462 1.565 1.972 2.18c1.011.41 2.224.405 3.649-.014q2.022-.596 3.373-2.078 1.359-1.48 1.489-3.761l3.015 4.003q.11 3.895-2.16 6.558-2.267 2.663-6.843 4.013M250.359 45.394q4.269-.255 7.771 1.245t5.686 4.953c1.452 2.303 2.293 5.338 2.514 9.102l1.236 20.793-12.749.757-1.112-18.716c-.157-2.601-.791-4.46-1.913-5.574q-1.675-1.672-4.462-1.507-2.046.121-3.645 1.101-1.599.981-2.427 2.918-.828 1.936-.643 5l1.043 17.56-12.749.758-2.165-36.397 12.138-.721.616 10.362-2.546-2.904c1.204-2.69 2.983-4.771 5.327-6.247 2.348-1.475 5.037-2.303 8.08-2.483M296.052 84.357l14.882-44.645 21.114 7.037q7.383 2.461 12.078 7.07 4.694 4.61 6.182 10.644c.988 4.023.726 8.318-.8 12.885q-2.281 6.85-7.101 10.808-4.817 3.957-11.338 4.828c-4.343.58-8.981.05-13.903-1.59zm15.989-5.84 7.919 2.638q3.861 1.287 7.184.774a11.14 11.14 0 0 0 5.832-2.752q2.51-2.24 3.787-6.077 1.289-3.858.611-7.122c-.445-2.177-1.456-4.067-3.024-5.67q-2.35-2.404-6.209-3.692l-7.919-2.639zM361.232 112.52q-5.514-3.354-8.361-7.95c-1.898-3.063-2.858-6.272-2.89-9.625q-.04-5.03 2.766-9.646 2.86-4.695 7.299-6.97c2.955-1.516 6.149-2.17 9.573-1.958q5.136.317 10.011 3.285 4.599 2.798 7.234 6.982c1.755 2.79 2.656 5.842 2.693 9.154q.06 4.97-3.084 10.132-.36.6-.864 1.314c-.336.476-.643.908-.933 1.298l-24.662-15.009 3.488-5.725 18.871 11.487-5.133-.915q1.308-2.112 1.424-4.168.118-2.055-.799-3.803c-.612-1.165-1.567-2.145-2.877-2.942q-1.966-1.196-3.967-1.222-2-.027-3.75 1.045t-3.066 3.231l-1.011 1.667q-1.387 2.278-1.443 4.54-.056 2.265 1.186 4.225c.832 1.307 2.059 2.457 3.69 3.449q2.325 1.416 4.367 1.749 2.046.334 4.43-.056l2.105 9.473c-2.477.731-5.074.859-7.781.385q-4.062-.712-8.516-3.427M386.079 129.554l12.726-37.316 9.886 8.651-11.09 30.824-4.959-4.342 29.543-14.67 9.146 8.006-35.316 17.545zM435.844 141.629l13.761 16.763-7.979 6.547-13.761-16.763zm-19.836 17.513-8.452-10.296 36.373-29.86 23.384 28.486-7.974 6.547-14.932-18.19zM439.829 192.964q-3.427-5.472-3.902-10.855-.482-5.384 1.732-9.899 2.219-4.514 6.802-7.379 4.662-2.914 9.647-2.955c3.323-.028 6.472.821 9.436 2.546q4.447 2.587 7.473 7.428 2.853 4.563 3.332 9.486.477 4.923-1.7 9.391-2.178 4.467-7.299 7.67-.6.373-1.365.786-.772.413-1.42.74l-15.3-24.478 5.681-3.553 11.71 18.734-4.173-3.12q2.117-1.3 3.144-3.085 1.02-1.787.993-3.758-.035-1.971-1.255-3.921t-2.992-2.872q-1.778-.92-3.824-.748c-1.365.115-2.758.619-4.187 1.512l-1.655 1.035q-2.26 1.413-3.327 3.411-1.064 1.998-.832 4.308.228 2.31 1.747 4.738 1.446 2.308 3.12 3.522 1.676 1.215 3.98 1.938l-2.367 9.41c-2.546-.459-4.917-1.508-7.124-3.147q-3.31-2.459-6.075-6.885M456.181 223.463a38.8 38.8 0 0 1-2.808-8.677q-.877-4.456-.506-7.57l9.527-.151q-.351 2.952.249 6.452c.4 2.334 1.057 4.505 1.981 6.514q1.329 2.904 2.472 3.763 1.14.86 2.216.367.944-.433.923-1.705-.014-1.273-.56-3.127a577 577 0 0 0-1.223-4.07q-.67-2.215-1.094-4.57-.428-2.354-.161-4.58.264-2.227 1.595-4.117t4.183-3.199q3.142-1.44 6.471-.705c2.22.489 4.361 1.713 6.434 3.669q3.104 2.934 5.483 8.12a40.3 40.3 0 0 1 2.551 7.418q.933 3.884.68 6.995l-9.527.151q.275-3.116-.327-5.791c-.395-1.784-.932-3.408-1.603-4.871q-1.345-2.932-2.579-3.833t-2.206-.456q-.98.449-.993 1.736-.015 1.287.515 3.149.531 1.863 1.199 4.079a36 36 0 0 1 1.067 4.558q.392 2.342.142 4.564-.256 2.222-1.581 4.109-1.322 1.886-4.154 3.186-3.014 1.381-6.338.66c-2.216-.482-4.367-1.719-6.444-3.711-2.082-1.992-3.939-4.778-5.584-8.357M469.855 258.461c-1.503-4.413-1.581-8.214-.244-11.403q2.012-4.784 8.65-7.043l29.626-10.081L512 242.027l-29.474 10.03q-1.89.643-2.601 1.997-.71 1.355-.152 2.983.717 2.123 2.358 3.282l-7.423 5.899q-1.552-1.232-2.794-3.291a23 23 0 0 1-2.059-4.466m18.265-27.435 9.022-3.07 8.502 24.982-9.022 3.069z"/></g><defs><clipPath id="a"><path fill="#fff" d="M0 0h512v512H0z"/></clipPath></defs></svg>