<?xml version="1.0" encoding="UTF-8"?>
<svg id="Layer_2" data-name="Layer 2" xmlns="http://www.w3.org/2000/svg" viewBox="0 0 291.51 66.49">
  <defs>
    <style>
      .cls-1 {
        fill: #00c605;
      }

      .cls-2 {
        isolation: isolate;
      }

      .cls-3 {
        fill: #878787;
      }

      .cls-4 {
        fill: #ee7d33;
      }

      .cls-5 {
        fill: #ffa706;
      }
    </style>
  </defs>
  <g id="Layer_1-2" data-name="Layer 1">
    <g class="cls-2">
      <g class="cls-2">
        <path class="cls-5" d="M87.06,27.66c-.3,7.5-5.9,12-14.9,12-10.85,0-17.1-6.45-17.1-17.6s5.9-17.05,15.6-17.05c5.15,0,8.3,1.45,10.3,4.75v-4.1h5.7v12.1h-6.15c-.15-2.3-.5-3.45-1.45-4.8-1.4-2.1-3.85-3.25-6.85-3.25-6.35,0-9.8,4.55-9.8,12.85s3.45,12.4,9.7,12.4c4.65,0,7.25-2.4,7.9-7.3h7.05Z"/>
      </g>
      <g class="cls-2">
        <path class="cls-5" d="M118.91,10.36c2.7,3,3.95,6.75,3.95,11.7,0,10.95-6.55,17.6-17.4,17.6-5.65,0-10.25-1.8-13.4-5.2-2.85-3.1-4.15-6.95-4.15-12.4,0-10.55,6.65-17.1,17.35-17.1,5.9,0,10.45,1.8,13.65,5.4ZM97.06,14.01c-1.15,2-1.8,5-1.8,8.4,0,8.05,3.6,12.55,10.1,12.55,3,0,5.7-1.15,7.4-3.2,1.85-2.2,2.7-5.15,2.7-9.4,0-3.6-.6-6.35-1.8-8.4-1.6-2.65-4.8-4.3-8.3-4.3s-6.7,1.65-8.3,4.35Z"/>
      </g>
      <g class="cls-2">
        <path class="cls-5" d="M133.36,10.21v24.25h4v4.55h-13.8v-4.55h4.1V10.21h-4.1v-4.55h15.15l5.4,17.1c1.25,4,1.65,5.6,2.35,9.45.3-1.6.5-2.75.65-3.3.15-.55.85-2.9,1.95-6.45l5.2-16.8h15.1v4.55h-4.15v24.25h4.15v4.55h-14.65v-4.55h3.95V10.21l-9.6,28.8h-6.25l-9.45-28.8Z"/>
      </g>
      <g class="cls-2">
        <path class="cls-5" d="M182.66,34.46h5.3v4.55h-16.65v-4.55h4.3V10.21h-4.3v-4.55h18.35c7.1,0,11.35,3.85,11.35,10.3,0,3.6-1.45,6.7-3.9,8.4-2,1.4-4.3,1.9-8.3,1.9h-6.15v8.2ZM186.91,21.71c2.45,0,3.75-.3,4.85-1.2,1.2-.95,1.9-2.65,1.9-4.55,0-3.85-2.2-5.75-6.8-5.75h-4.2v11.5h4.25Z"/>
      </g>
      <g class="cls-2">
        <path class="cls-5" d="M231.31,34.46h2.9v4.55h-14.7v-4.55h4.35l-2.15-5.65h-13.7l-2.2,5.65h4.4v4.55h-13.85v-4.55h2.9l11.95-28.8h8.3l11.8,28.8ZM219.91,24.36l-5.05-13.1-5.1,13.1h10.15Z"/>
      </g>
      <g class="cls-2">
        <path class="cls-5" d="M242.01,27.66c.7,5.2,2.7,7.3,7,7.3,3.85,0,6.1-1.65,6.1-4.5,0-2.3-1.05-3.35-4.85-4.65l-6.05-2.15c-6.15-2.15-8.2-4.4-8.2-8.95,0-6.1,4.25-9.75,11.4-9.75,4.25,0,6.9,1.25,8.35,3.85v-3.15h5.7v10.8h-5.7c0-4.5-2.25-6.8-6.7-6.8-3.55,0-5.65,1.6-5.65,4.25,0,2,1.1,3,4.85,4.3l5.9,2.05c3.7,1.25,5.7,2.45,6.85,4.15,1,1.4,1.5,3.2,1.5,5.35,0,6.25-4.35,9.9-11.75,9.9-4.6,0-7.4-1.35-8.75-4.2v3.55h-5.7v-11.35h5.7Z"/>
      </g>
      <g class="cls-2">
        <path class="cls-5" d="M271.01,27.66c.7,5.2,2.7,7.3,7,7.3,3.85,0,6.1-1.65,6.1-4.5,0-2.3-1.05-3.35-4.85-4.65l-6.05-2.15c-6.15-2.15-8.2-4.4-8.2-8.95,0-6.1,4.25-9.75,11.4-9.75,4.25,0,6.9,1.25,8.35,3.85v-3.15h5.7v10.8h-5.7c0-4.5-2.25-6.8-6.7-6.8-3.55,0-5.65,1.6-5.65,4.25,0,2,1.1,3,4.85,4.3l5.9,2.05c3.7,1.25,5.7,2.45,6.85,4.15,1,1.4,1.5,3.2,1.5,5.35,0,6.25-4.35,9.9-11.75,9.9-4.6,0-7.4-1.35-8.75-4.2v3.55h-5.7v-11.35h5.7Z"/>
      </g>
    </g>
    <path class="cls-4" d="M183.54,52.54c-4.86,1.73-9.73,3.44-14.59,5.19l2.33,2.16c.38-.12.78-.18,1.18-.17,1.9-.06,3.5,1.42,3.58,3.32,0,.36-.06.72-.19,1.06l2.35,2.16c1.85-4.4,3.69-8.8,5.52-13.2.07-.17.12-.35.23-.62l-.4.11Z"/>
    <g>
      <path class="cls-1" d="M43.71,19.32c-.47-.71-1.82-.91-2.82-1.17-1.26-.18-2.25-1.15-2.47-2.4-.27-.75-.59-1.48-.95-2.19-.14-.39-.14-.83,0-1.22.49-1.19,1.12-2.32,1.62-3.51.09-.34.02-.71-.19-1-.86-1-1.83-1.82-2.7-2.76-.29-.4-.85-.49-1.26-.2,0,0,0,0-.01,0-1,.55-2.15,1-3.2,1.56-.48.29-1.07.29-1.55,0-1-.5-2.07-.83-3.07-1.32-.41-.2-.74-.53-.94-.94-.48-1.11-.88-2.27-1.25-3.43-.1-.49-.56-.82-1.06-.74h-3.77c-.42.06-.79.3-1,.67-.49,1.15-.85,2.36-1.31,3.52-.14.34-.38.62-.69.8-1.33.61-2.7,1.61-4,1.58s-2.66-1.09-4-1.7l-.08-.06c-.33-.29-.83-.25-1.11.08-.02.03-.05.06-.07.09-.9.93-1.82,1.76-2.72,2.76-.24.32-.31.74-.2,1.12.49,1.19,1.12,2.32,1.63,3.51.12.37.12.76,0,1.13-.43,1.1-.89,2.24-1.4,3.24-.18.38-.48.7-.86.89-1.12.47-2.28.88-3.44,1.25-.54.09-.91.59-.83,1.13C.01,21.23.06,22.45.01,23.67c-.05.52.31.99.83,1.08,1.13.36,2.26.75,3.34,1.21.43.19.78.52,1,.93.5,1.03.95,2.09,1.33,3.17.15.43.15.89,0,1.32-.5,1.18-1.13,2.27-1.6,3.43-.11.39-.04.8.2,1.13.83.93,1.79,1.76,2.63,2.68.33.42.93.5,1.36.2,1.08-.57,2.2-1.07,3.3-1.59l.63-.27c.83.48,1.71.86,2.62,1.15,1.42.27,2.52,1.41,2.73,2.84.25.92.47,2.13,1.14,2.59s1.88.16,2.86.17c2.24,0,2.34,0,3-2.14.38-1.75,1.67-3.16,3.38-3.7,1.47-.73,3.2-.66,4.61.17,2.22,1.25,2.29,1.13,4.09-.66,2-1.94,2.05-2,.74-4.41-.74-1.33-.79-2.93-.13-4.3.55-1.82,2.07-3.18,3.94-3.54,2-.54,2-.65,2-2.67-.09-1.07.21-2.39-.3-3.14ZM21.93,35.32c-7.67-.06-13.89-6.24-14-13.91,0-7.73,6.27-14,14.01-13.99,7.73,0,13.99,6.27,13.99,13.99-.09,7.68-6.32,13.87-14,13.92h0Z"/>
      <path class="cls-4" d="M30.16,14.05c-3.63,1.29-7.26,2.57-10.89,3.87l1.74,1.61c.28-.09.58-.13.88-.13,1.42-.05,2.61,1.06,2.67,2.48,0,.27-.05.54-.14.79l1.75,1.61c1.38-3.28,2.75-6.56,4.12-9.85.05-.13.09-.26.17-.46l-.3.08Z"/>
      <path class="cls-4" d="M22.64,24.25c-.25.06-.5.1-.76.1-1.42.05-2.61-1.04-2.69-2.46,0-.24.04-.49.11-.72l-1.75-1.61c-1.24,2.95-2.48,5.91-3.71,8.86l-.57,1.38.31-.09,10.82-3.85-1.76-1.61Z"/>
    </g>
    <g>
      <path class="cls-3" d="M196.71,51.42c4.99,0,7.76,2.66,7.76,7.43,0,2.46-.82,4.46-2.33,5.7-1.44,1.18-3.15,1.66-5.94,1.66h-7.03v-2.02h1.88v-10.75h-1.88v-2.02h7.54ZM194.18,64.19h1.46c2.08,0,3.24-.35,4.15-1.31.91-.93,1.4-2.37,1.4-4.12s-.49-3.17-1.46-4.12c-.87-.84-1.95-1.2-3.66-1.2h-1.88v10.75Z"/>
      <path class="cls-3" d="M212.94,57.69v-1.75h2.13v5.54h-2.13v-1.75h-2.42v4.46h5.92v-2.71h2.53v4.72h-13.46v-2.02h1.88v-10.75h-1.88v-2.02h13.46v4.52h-2.53v-2.5h-5.92v4.26h2.42Z"/>
      <path class="cls-3" d="M229.15,64.19h2.17v2.02h-7.45v-2.02h2.15v-10.75h-2.93v3.08h-2.53v-5.1h14.06v5.1h-2.53v-3.08h-2.95v10.75Z"/>
      <path class="cls-3" d="M240.99,64.19h1.84v2.02h-6.9v-2.02h1.93v-10.75h-1.93v-2.02h8.09c2.08,0,3.37.42,4.19,1.38.55.67.87,1.53.87,2.5,0,1.2-.47,2.31-1.24,2.95-.53.46-1.15.69-2.31.82v.09c1.51.09,2.17.62,2.62,2.08l.98,2.95h1.51v2.02h-4.1l-1.51-4.57c-.38-1.17-.98-1.6-2.19-1.6h-1.84v4.15ZM242.83,58.02c1.97,0,3.15-.89,3.15-2.37s-.91-2.22-2.66-2.22h-2.33v4.59h1.84Z"/>
      <path class="cls-3" d="M264.93,53.5c1.2,1.33,1.75,2.99,1.75,5.19,0,4.86-2.9,7.8-7.72,7.8-2.5,0-4.54-.8-5.94-2.31-1.26-1.38-1.84-3.08-1.84-5.5,0-4.68,2.95-7.58,7.69-7.58,2.62,0,4.63.8,6.05,2.39ZM255.25,55.12c-.51.89-.8,2.22-.8,3.73,0,3.57,1.6,5.56,4.48,5.56,1.33,0,2.53-.51,3.28-1.42.82-.98,1.2-2.28,1.2-4.17,0-1.6-.27-2.82-.8-3.72-.71-1.18-2.13-1.91-3.68-1.91s-2.97.73-3.68,1.93Z"/>
      <path class="cls-3" d="M270.15,53.43h-1.95v-2.02h7.05v2.02h-1.97v10.75h1.97v2.02h-7.05v-2.02h1.95v-10.75Z"/>
      <path class="cls-3" d="M285.2,64.19h2.17v2.02h-7.45v-2.02h2.15v-10.75h-2.93v3.08h-2.53v-5.1h14.06v5.1h-2.53v-3.08h-2.95v10.75Z"/>
    </g>
  </g>
</svg>