<svg height="288" viewBox="0 0 288 288" width="288" xmlns="http://www.w3.org/2000/svg"><g fill="none" fill-rule="evenodd"><path d="m0 0h288v288h-288z" fill="#d0e2ff"/><path d="m169.399103 145.110259-15.274415-6.751854 5.150148 16.353373c.977165 2.913496 3.440181 5.771596 7.599668 5.771596 4.330454 0 7.87496-3.534382 7.87496-7.864275 0-3.668233-2.255211-6.120564-5.350361-7.50884zm8.735146-18.070932v-3.093182h17.715497l1.075865 3.093182zm0 5.905166v-3.093182h19.769089l1.075584 3.093182zm34.025003 35.430995h15.465911v-3.093182h-15.465911zm0-5.905166h15.465911v-3.093182h-15.465911zm0-5.905166h9.279546v-3.093182h-9.279546zm0-5.905166h9.279546v-3.093182h-9.279546zm0-8.747519-.997692 2.842353h-16.563428l-.997973-2.842634v2.842634h-9.279546v-3.093182h17.689909l.869184 2.500135.869465-2.500135h17.689627v3.093182h-9.279546zm9.279546-3.062813h-16.711619l1.075584-3.093182h15.636035zm-37.118185 11.810332h9.279546v-3.093182h-9.279546zm0 5.905166h9.279546v-3.093182h-9.279546zm-6.186364 5.905166h15.46591v-3.093182h-15.46591zm0 5.905166h15.46591v-3.093182h-15.46591zm49.490914-44.429343v3.093182h-18.791082l1.075303-3.093182zm-19.768809 5.905166h19.768809v3.093182h-20.844673zm-23.535741 5.905165h15.636036l1.075865 3.093182h-16.711901zm11.264807 11.810332h14.588853l-1.085988 3.093182h-12.417158zm2.072994 5.905166h10.442864l-1.086269 3.093182h-8.270888zm2.072995 5.905166h6.296875l-1.086269 3.093182h-4.124618zm2.072994 5.905166h2.150605l-1.080083 3.093182zm-66.242182-1.407398c1.556433 3.315891 4.92772 5.625092 8.833003 5.625092 3.908095 0 7.25773-2.305545 8.812757-5.625092zm18.562467-9.749991h-19.499982v5.249973h19.498857zm0-9.749992h-19.499982v5.249974h19.498857zm-.916707-4.500017c-1.556433-3.31561-4.928282-5.625093-8.833284-5.625093-3.908095 0-7.25773 2.305546-8.812476 5.625374zm-39.208332 12.744191c0 4.329893 3.544786 7.864275 7.875241 7.864275 4.159205 0 6.622503-2.8581 7.599386-5.771596l5.15043-16.353373-15.274415 6.751854c-3.09515 1.388276-5.350642 3.840607-5.350642 7.50884zm36.008295-29.244068c-2.480451 0-4.491863 2.010849-4.491863 4.491581s2.011412 4.491582 4.491863 4.491582c2.480732 0 4.491863-2.01085 4.491863-4.491582s-2.011131-4.491581-4.491863-4.491581zm-11.266494 0c-2.480732 0-4.491863 2.010849-4.491863 4.491581s2.011131 4.491582 4.491863 4.491582 4.491581-2.01085 4.491581-4.491582-2.010849-4.491581-4.491581-4.491581zm-54.3666126-1.875031c-9.6003936 0-17.9837608 5.426566-22.5000878 13.500053v4.500017c5.3742633-6.416103 13.4578729-10.500228 22.5000878-10.500228s17.1255436 4.084125 22.4998066 10.500228v-4.500017c-4.516046-8.073487-12.8994129-13.500053-22.4998066-13.500053zm13.4997716 31.500123c0-7.455975-6.0440779-13.500053-13.4997716-13.500053-7.4559748 0-13.5000527 6.044078-13.5000527 13.500053 0 7.455694 6.0440779 13.499772 13.5000527 13.499772 7.4556937 0 13.4997716-6.044078 13.4997716-13.499772zm10.500228 0c-3.951399 9.695439-13.2092932 16.499596-23.9999996 16.499596s-20.0486004-6.804157-24-16.499596c3.9513996-9.696001 13.2092936-16.500158 24-16.500158s20.0486006 6.804157 23.9999996 16.500158zm-18.0000699 0c0 3.313642-2.686288 5.999649-5.9999297 5.999649-3.3139228 0-5.9999297-2.686007-5.9999297-5.999649 0-3.313923 2.6860069-6.000211 5.9999297-6.000211 3.3136417 0 5.9999297 2.686288 5.9999297 6.000211z" fill="#0043ce"/></g></svg>